/* XPM */
static char *_b227fe90ddc4534e1711ffd1adb5f17r3TDsfpN79huRqfL[] = {
/* columns rows colors chars-per-pixel */
"64 64 246 2 ",
"   c #110F14",
".  c #141216",
"X  c #161419",
"o  c #1B151C",
"O  c #1D181F",
"+  c #21191F",
"@  c #1E1A22",
"#  c #221722",
"$  c #231D25",
"%  c #241E29",
"&  c #291D2C",
"*  c #311F2F",
"=  c #2C1D31",
"-  c #391E34",
";  c #252027",
":  c #26212B",
">  c #2A232E",
",  c #36222F",
"<  c #2C2532",
"1  c #2B2635",
"2  c #2E2934",
"3  c #322434",
"4  c #3B2434",
"5  c #312A36",
"6  c #332639",
"7  c #3B263B",
"8  c #342C3A",
"9  c #392D3D",
"0  c #36303D",
"q  c #3A313E",
"w  c #442334",
"e  c #44263C",
"r  c #57253C",
"t  c #6A2039",
"y  c #352D42",
"u  c #3C2E43",
"i  c #3C2F49",
"p  c #3D3343",
"a  c #3D3846",
"s  c #3C334A",
"d  c #432D43",
"f  c #4B2B43",
"g  c #4C2B47",
"h  c #5D2543",
"j  c #572B48",
"k  c #413345",
"l  c #423946",
"z  c #4A3847",
"x  c #43354B",
"c  c #4A354C",
"v  c #443B4C",
"b  c #4A3B4D",
"n  c #52354C",
"m  c #5B334E",
"M  c #433551",
"N  c #4A3654",
"B  c #453B53",
"V  c #4A3D53",
"C  c #433D5D",
"Z  c #4C3E5A",
"A  c #523C53",
"S  c #583956",
"D  c #632847",
"F  c #673958",
"G  c #723251",
"H  c #463F60",
"J  c #683F61",
"K  c #4C424D",
"L  c #4C4154",
"P  c #4E435B",
"I  c #48445C",
"U  c #534455",
"Y  c #584656",
"T  c #53455C",
"R  c #5C465C",
"E  c #544A5D",
"W  c #5C495D",
"Q  c #5D525D",
"!  c #64455D",
"~  c #464264",
"^  c #4B4364",
"/  c #49466A",
"(  c #4C486B",
")  c #534463",
"_  c #5A4563",
"`  c #564B62",
"'  c #5B4C63",
"]  c #534669",
"[  c #544B6D",
"{  c #5C4B6A",
"}  c #5B5265",
"|  c #5C5567",
" . c #5E546A",
".. c #4D4A71",
"X. c #564D73",
"o. c #5C5173",
"O. c #545379",
"+. c #5A547A",
"@. c #634D64",
"#. c #6A4963",
"$. c #624D6B",
"%. c #7B4D6A",
"&. c #635265",
"*. c #6A5365",
"=. c #63546B",
"-. c #6B556B",
";. c #635B6D",
":. c #6C5A6E",
">. c #75586D",
",. c #645273",
"<. c #6B5473",
"1. c #665C71",
"2. c #6A5C73",
"3. c #67597A",
"4. c #6C5C7B",
"5. c #725C73",
"6. c #775B77",
"7. c #745D79",
"8. c #5F7B62",
"9. c #716A69",
"0. c #726A6E",
"q. c #676072",
"w. c #6B6275",
"e. c #6D6379",
"r. c #736476",
"t. c #7B6374",
"y. c #72647B",
"u. c #7C647B",
"i. c #75697E",
"p. c #7C697E",
"a. c #885A7B",
"s. c #836A7C",
"d. c #8D6A7D",
"f. c #4B8252",
"g. c #5B5A80",
"h. c #675C84",
"j. c #775E85",
"k. c #69658A",
"l. c #746483",
"z. c #7C6483",
"x. c #766B82",
"c. c #7A6D85",
"v. c #79668B",
"b. c #7C6D8B",
"n. c #787189",
"m. c #7D718A",
"M. c #746D94",
"N. c #7C7597",
"B. c #7976A3",
"V. c #846C83",
"C. c #856987",
"Z. c #976886",
"A. c #877487",
"S. c #83738D",
"D. c #8E748A",
"F. c #92778C",
"G. c #856D93",
"H. c #837592",
"J. c #8B7394",
"K. c #857A94",
"L. c #8A7B95",
"P. c #89789A",
"I. c #947B93",
"U. c #9B7D93",
"Y. c #977999",
"T. c #937C9D",
"R. c #8C7BA3",
"E. c #8A7CA6",
"W. c #957CA2",
"Q. c #988D89",
"!. c #8D829C",
"~. c #94829D",
"^. c #9D8398",
"/. c #9B829D",
"(. c #A5889C",
"). c #9583A1",
"_. c #9C85A3",
"`. c #968AA2",
"'. c #9D8AA5",
"]. c #928AAD",
"[. c #9D8BA9",
"{. c #9C98BE",
"}. c #A48BA5",
"|. c #A68BA7",
" X c #A48DAA",
".X c #AD8FAF",
"XX c #A391A1",
"oX c #A491AD",
"OX c #AA92AC",
"+X c #B394AB",
"@X c #B89BAB",
"#X c #AC95B2",
"$X c #AC9AB7",
"%X c #B39BB5",
"&X c #B99BB6",
"*X c #B59CBA",
"=X c #B9A6BA",
"-X c #BCA2BC",
";X c #B7B0BA",
":X c #C4A9B9",
">X c #ACA8CB",
",X c #BDA6C1",
"<X c #B6AAC8",
"1X c #BEB1CD",
"2X c #B2AED1",
"3X c #B9B5D5",
"4X c #C4ABC4",
"5X c #C5ACC7",
"6X c #CBB3CB",
"7X c #C9B6CA",
"8X c #D0B7CD",
"9X c #D2BACD",
"0X c #CCAED0",
"qX c #CCB8D3",
"wX c #D2BCD1",
"eX c #D8B9D4",
"rX c #E0BCD6",
"tX c #D4CCCF",
"yX c #D5C2D5",
"uX c #DAC4D6",
"iX c #D8CAD6",
"pX c #DCC6D9",
"aX c #DEC9DA",
"sX c #E3C6DA",
"dX c #E2CBDC",
"fX c #E6D2DD",
"gX c #DFC8E5",
"hX c #E4CCE1",
"jX c #E7D4E4",
"kX c #E9D5E2",
"lX c #EDDBE5",
"zX c #EEDCE9",
"xX c #F0DDE7",
"cX c #F2DEEA",
"vX c #F0DDF0",
"bX c #EBE2E6",
"nX c #F5E3EA",
"mX c #F3E4EB",
"MX c #F6EAED",
"NX c #F9EBEE",
"BX c #FAF0EF",
"VX c #FBE4F2",
"CX c #FBECF2",
"ZX c #FBF5F3",
"AX c #F9F5F4",
"SX c #FCF8F4",
/* pixels */
"} E E E I ; ; : > 2 2 2 2 2 @ ; 2 5 2 q 9.9.e 0 2 5 2 2 2 2 2 5 2 5 8 , 0 9.Q.0.q 8 8 8 8 5 5 2 5 2 > 2 > > 2 > > > > > > > > > ",
"} E E E E a ; : > > > 2 2 2 2 2 5 5 5 q K K 5 2 : % ; ; > , > > > 5 2 5 e K 0.K 9 q 3 4 5 5 5 o o o > 5 2 2 2 > 2 > > > > > > > ",
"| | | } } I ; ; : : 1 1 : 2 2 2 8 8 0 0 K Q 0 5 5 5 5 0 5 8 5 2 8 8 q 8 q Q p.Y 0 0 q q 8 8 4 5 5 5 5 > 2 2 2 1 2 > 2 2 2 2 > > ",
"| | } | | E 1 1 ; 2 : : 2 2 2 0 0 9 0 q z K 0 5 9 9 0 q 8 q q 0 q 8 9 9 q K K l q q e q q q 0 8 5 5 5 2 2 5 2 0 2 2 2 > > > : : ",
"| | | | | ` a : 1 2 2 5 2 5 5 0 q q q 0 9 q 0 9 9 0 q q p q 9 e q q q e e q q q p q k l e k 0 0 0 5 5 2 5 5 2 2 5 2 0 2 2 2 2 > ",
";.;.;.| | | E : 2 > 2 2 2 5 0 y q q e 0 8 0 9 0 k z b K K U U Y Q Y Y U K K z l p 9 9 3 0 5 5 > > 1 > 1 5 0 5 0 0 0 2 2 2 2 2 2 ",
";.;.| | ;.| | 1 1 2 5 5 5 0 0 0 k k 8 b b l b b b @.@.-.*.>.t.t.s.d.s.s.s.-.*.U L v v l l q a a a p a 0 0 0 0 5 0 0 0 2 2 > > 2 ",
"q.;.;.;.q.| | E > 5 5 5 0 0 0 q q p b U L K L b k U Y W @.@.*.t.s.t.t.-.! W E U K L K K l K b l K K K b 0 > 0 5 0 2 0 2 2 2 ; E ",
"i. .q.q.q.;.| | 2 2 5 0 0 5 0 a l u -.@.U b z v l L U U R W @.s.Q.(.D.>.W R U U K b b K z b L L L P =.5.l q 0 0 0 0 5 5 2 : E | ",
"e.q.q.;.q.q.;.| 2 1 2 0 5 0 0 p p z u.' v :.@.&., @.=.5.u.t.t.u.s.s.s.t.r.@.@.&.3 W E U > b ` E U T s.u.l 0 0 0 0 5 5 2 : 0 E | ",
"} w.w.w.q.q.q.| } 1 2 5 8 0 0 q p b @.V =.2.r.r.7 :.r.s.V.A.C.A.A.V.A.V.s.t.:.5.3 -.&.*.W > U ` E } b R p q 0 5 0 0 5 2 0 E | q.",
"E q.0.w.q.q.w.;.| 2 2 0 5 0 0 q k V -.R :.r.V.u.e s.A.D.F.U.U.U.U.U.I.F.F.V.u.t.e :.:.&.W 5 :.} ` =.5.z p 0 0 0 5 2 5 0 | | ;.;.",
"E E i.0.q.q.q.q.| 8 2 5 0 0 0 q p U &.=.W T W V.z D.I.^.(.+X+X:X-X@X+X(.(.F.D.V.b :.&._ @.7 Y  .} T W k 0 0 0 5 5 1 5 } | | q.q.",
"| Q x.e.q.w.w.w.;.` 2 8 0 q q k k W W -.7.:.u.t.A I.(.+X9XNXZXSXSXZXSXfX@X}.U.D.! r.2.-.&.A , =.=.u R 3 p y 0 5 5 1 `  .;.;.q.w.",
"l }  .i.q.q.e.e.q.} 1 0 p p l x u :.u =.5.y.z.s.! }.:XZXSXSXSXSXSXSXSXSXZXsX}.F.>.t.7.-.=.R 3 '  .d U l s p y 0 5 K |  .q.0.w.e.",
"p p } r.w.q.i.e.q. .9 s k v v b v } 7 p c u.V.C.%.CXZXZXSXSXSXtXSXtXSXSXZXZXZX:XD.u.7.2.u 8 3 =.' 2.V x v a a a 5 ` | q.w.e.e.x.",
"9 K E } y.w.w.w.w.;.l k B V b L B E 8 u p c @.C.}.CXCXZXZXZXZXZXSXZXSXZXZXNXBX(.rXu.b k 9 7 3 k  .1.U u b v v a p  .1.1.e.w.e.m.",
"> p q E ;.w.e.0.e.;.B v v L L b T 3 u u p z A A.Z.CXNXCXCXZXZXNXZXBXBXBXNXNXNXZ.VXA z d 9 8 3 & ' =.R B L B L a p  .1.q.r.i.e.A.",
"> ; z b E i.e.w.w.;.v B b L L V ' 5 u u k b A C.a.CXNXNXNXNXNXNXNXNXNXNXNXNXVXU.sXS b k 9 5 3 < { &.=.V L L v l E  .1.2.e.e.i.L.",
"2 2 0 b E ;.e.w.e.2.v l L L L b &.3 u 9 k }.A C.d.ZXNXnXNXNXNXNXMXNXMXNXMXNXZX:X&XA 6.k 0 3 < , &. .&.V L L L p } =.q.e.e.r.A.|.",
"; > : b # T x.w.w.e.L l b V U U = 9 6 x }.|.n C.d.NXNXNXnXNXNXMXMXnXNXMXnXNXZX(.D.A W.V.9 6 3 3 & C.<.L 8 V q p E :.w.e.e.y.L.+X",
"; ; ; ; # 9 y.r.w.e.E l 9 L b ' 3 u M J.G.Y.b V.a.NXNXCXnXNXnXnXVXNXnXMXVXnXZXd.t.A C.C.7 9 9 < 3 7.u.` v v p 6 } :.w.2.y.i.D.|.",
"; X $ # O 3 } x.e.q. .p b L V 5.x 4.<.7.z.J.b s.a.fXMXZ.d.NXtX(.fX(.:XbX>.d.NX-.u.n C.<.d -._ 9 w V.y.=.L v K 8  .q.q.e.e.p.S./.",
"; > $ ; o & E =.e.q.} p b v V 3 N { @.<.j.T.c 5.#.lXCXd.F.U.XX+X@X+X:X:X8XVXVX#.V.N C.t D.S $.B 7 Y r.:.v v v a  .2.2.e.y.p.x.` ",
"; > ; > $ & 8 E r.w.| p v v ' p ) Z _ <.C.W.N 5.#.zXNXCXNXZXZXZXZXSXZXAXBXBXNX! C.c G.G Z.S N V 7 , u.7.T l v p ;.1.q.e.y.p.:.P ",
"; ; 1 ; ; & k E w.w.;.y v v z.9 ) n _ 4.J..XN #.F cXmXmXMXnXnXmXnXnXmXMXbXmXcXR p.c W.G t V M P < 3 V.r.} l a a ;.q.e.q.y.x.E 8 ",
"; @ 5 O o # 5 P e.e.;.p b v z.9 $.= $.j.W.P.c ' F dXmXmXnXnXnXnXnXMXmXMXmXmX9XR z.d T.J.<.{ N S 8 w I.R 1.v a v 2.q.e.q.e.w.P % ",
"X X X X X + > B | q.1.8 l E e 9 4.G.*X*X.X%X*XT S cXcXfXiX9X4X=X@XOX^.^.^.F.lX! 6. XW.T.W.J.$.$.3 4 }.8.V b p K y.e.e.2.e.E z 2 ",
"O X . . X O < 9 E 1.e.a 8  .e u S ,.{ { =.,.j.N m cXpX#.C.+XsXsXdXdXhXdXs.eXVX#.R { T Z V x B { 8 w .Xf.A V q &.y.e.e.q.e.` 5 : ",
"O X . . X O < < E w.e.v 6 =.6.s i y s s B Z ` c m lXmXVXcXcXnXbXbXcXnXkXfXCXnXR x x k u u 9 8 7.7 w }.9.5.L p :.y.y.e.q.e.} < > ",
". . . . X o > < ` w.i.v y =.}.p Z > 6 1 8 y u u m lXxXxXxXxXxXlXxXxXxXmXxXlXmXA u u 8 6 1 1 < <.e - (.f.y.V p y.i.i.r.e.w.| < > ",
". . . . X o > 3 ` e.i.v a ' }.9 <.6 6 y u x y p m kXkXlXlXxXxXxXlXlXlXzXxXxXxXn s V Z x x p M ' 7 * (.b u.v 8 x.i.x.i.i.i.=.> : ",
".   . . O o > < } i.i.l v W /.8 { x N Z _ v.u u F kXlXlXCXzXnXCXVXCXlXxX@XxXlXg x ) $.Z N M ` T 4 , }.J.r.x 9 S.x.x.i.i.i.| > : ",
"X   . . > o & < ' y.i.v l T }.7 _ x N P ' ,.u u n kXfXkXI.jXjX}.'.5XxXCXfXfXkXf l { $.Z V c ) Z 4 * +XI.y.l 6 S.c.x.p.i.:.E > ; ",
". . . $ : o ; 2 } i.x.B l T oX3 ) p V C _ N x i r kXfXVXoX[. X|.OX+X).[.nXxXdXf u { $.) Z x ) k 4 6 %X/.7.p l S.c.c.x.m.| P a ; ",
". . . @ ; + ; < } x.c.V l T  X3 ) x B Z { ,.u i f dXMX7X}.7XuXdXdXuXeX*X XdXsXf d { { ) Z M ) y 4 3 &X}.5.8 x S.b.c.m.c.| p 5 $ ",
"  X . X ; ; ; 2 } c.n.} p L  X8 { M Z ) ] ,.M i e aXoX[.~.dXoXaXpX'.fX4X'.[.pXf p ] { ) P B _ y w * :X}.-.u v K.S.n.c.n. .p ; $ ",
". X . X ; > % 2 ` c.n.y.k V }.7  .N P ) _ ,.x i e pXoXJ.hX6XdXdXdXpX6XdXP.*XsXe p ] { T Z M { y w c &XOX=.l c K.S.A.c.m. .< 2 ; ",
". . X . $ > ; 2 T e.n.c.a B }.7 ,.B B ) _ o.s i w uXqXhX4XjXaXdXdXsXsX9XT.pXuXn p { _ ^ B x o.y w &X&XY.$.l V K.m.m.m.m.;.> > ; ",
"X . . . ; < % 6 L e.n.m.1 V _.7 ,.B Z ) ] o.M i - aXT.5XaXdXaXaXiXpXpXdXOXhXpX6.M { ) T C B $.y w 5X:X-.' k y.T.S.m.m.n.} 1 > ; ",
"X . X X 2 > + 2 s  .n.m.p v /.7 ,.Z Z ) ] { B s -.hXhX).lXhXpXpXzXpXpXjX XuXwXeXy ) ) I B M 3.y w 5X:X6.-.v S.~.S.m.n.n.} > : ; ",
". . X . 0 > O 5 6  .c.H.y L /.e C 3.Z ) ] { B s qX6XpXW.hXpXpXuXuXpXhXF  XzX6 ).i ) ) ^ Z ,.7.6 w 5X4X6.6.V /.'.K.S.n.w.` % ; ; ",
"X X o O 5 2 O 2 < } n.H.9 ) /.e i j.Z H ] { C s [.u zXR qXfXaXuXyXmXyXA.pXzX7 s s e.) P Z j.x w e 8X4X.XD.$.Y._.L.H.m.,.U a > > ",
"X . o o 5 > O 2 < } N.P.p ' /.f u v.Z ) ] X.B s B u qXlXuXeXyXyXyXwXwXwXcXu oXs i ) ] Z Z j.y r 9 8X5X&XY.6.u._.~.K.m.;.p K ; > ",
"O X X X 0 > O 2 < } N.S.v =./.}.f ] G.Z ] X.Z s p 7Xi pXnXyXyXyXyXyXaXvXx 8 P y y ] ) H v.$.- r wXwX4X%XY.S u._.~.A.N.1.0 @ ; 2 ",
"O X X O > > O > 1 =.L.P._ =._.5Xh M v.H ] ] ,.Z o.p <Xx s aXvXcXmXvXT y 5X[ < ) o.^ ] Z v.x r * uX9X5X%XY.V.@.}.~.!.H. .> 1 ; 2 ",
"O ; O X @ ; + 5 1 =.L.L.V -./.-XJ.d h.v.] ] Z v.p ( ~ X.2XoXu 7 9 T 0XN.~ ~ ( < h.{ ] G.v.- h pXeX8X5X&XL.V.-.U./.!.K. .; ; ; 1 ",
"; 5 5 X X o o 5 8 =.L.K.V =.W.&X6Xj N v.] ,.3.s s [ C C C H ..O./ C C s I s X.~ 3 ] v.G.C r e uX9X8X4X%X#.C.:.:.~.!.K.} > ; ; > ",
"$ 0 X X X X $ 0 5  .!.c.` =.T.OX5Xf M l.gXo.y ..~ ~ C C H H s C C C C C ~ ~ ..g.O.6 ^ v.V r 9XuX8X6X:X*X<.D.5.$.T.L.K.} ; @ @ 2 ",
"X . . . . X # q 5 } !.' x &.<.}.-X6Xj ^ ] y g.g./ ~ ~ / ~ H / ~ ~ ~ ~ ~ / g.M.].{.g.y ) r e uXeX9X4X-X#X<.V.5.n L.L.m.` ; : < 2 ",
"o X X . X X o 8 8 ` !.` V ' l.T.#X6Xd X.y h.].g.g.../ / / ~ / H ~ / / / ..k.{.{.>Xk.X.1 h ^.0X6X5X5X&XOX$.V.2.V S.L.x.` 2 < > 2 ",
"o . X . . X o $ 5 E `.E R T y.P. X-XqXj {.C 2XB.g...g.../ ~ / / ~ ~ / ..g.k.2X3X3XH ].g d sXOX6X5X-X%X XZ u.-.@.' K.x.` q 0 < 8 ",
"o . . . X X X # 8 E ).P ` P =.K._.*X6.j {.g.3XM.g.g.O.X.H H ~ H ~ ~ ~ h.X.h.k.qX( h.k.j c #.U.6X5X-XOX}.T 5.=.$._ S.c.' p L > 0 ",
"+ X . X . X X # 8 L ).L T ' ` S.W.$Xz.qXS 2Xk.k.E.B.R...R.E.R.E.E.E.P.+.h.E.E.R.].{.N j T.Z.6X5X,X&XoX_._ 1.&.@.x c.N.=.p a : > ",
"o o v p y < a # 0 L !.I ` ' ` 4.P.oX*Xa.m 3XE.E.E.E.E.P.G.R.G.G.M.l.+.+.+.+.h.B.3X2Xm c ,.0X7.4X-X*X X/.<.1.@.} T x.m.1.1 : : : ",
"+ 3 l p 0 2 p # 9 I !.L P ' ) 1.G. X*XW..XS B.k.g.....H H N N g j j j j h D D D G G J y.6Xk.6X4X-X%XoX~.r.<.' ` T T c.1.< ; : ; ",
"I 0 y a 0 1 0 @ y L !.I P } k ,.K.[.$X$X0XF F D D D h D h D D h D h h h j j j m S $.0XSXqXP.y.,X*X#X'.T.z.=.` E T L x.1.6 < > > ",
"I ; y a 0 : 0 @ L P !.v P E  .} m.].#Xl.;X1X{ T N u u u - = = 6 7 u u d i x x F 3.3.ZXZXZX6Xk.,X*XOX[.P.x.;.` L L u w.| s 1 > < ",
"K O : 0 0 : a :  .} N.y P ^ } { 4.).oXL.iXAXSX!.S u x x u u u u u d x x x k k c <.$XSXSXAX$X<X3.#X[._.L.y. .E U V V y.!.1 1 : : ",
"a v 1 ; a 1 a : 1 l.m.a I E ` { x.L.XX$XMXZXAX$X#.x u k u u 8 6 3 3 6 = 6 y 6 u #.;XfXSXZXAX7Xw.oX'.).K.y.{ E P L L L !.| s 1 : ",
"I I a O a 1 a 1 a ; m.v L E I ` w.K.[.;XAXZXSXqX6.x p 6 1 1 = > = > < 1 1 1 y s N 5XyXZXAXZX7X[.` ).~.m.e. .` E I U L n. .y 1 1 ",
"v v 0 a 0 1 a 1 a  .x.y L P P s  .n.].;XbXZXZXtXY.k y 1 = 7 = > 1 = : : > 1 6 y u m tXSXAX;X1X=X) ~.P.b.q.` T P K I 0  .w.} a : ",
"I a y 5 y 1 B 1 K  .q.L L P ` ` ` n.`.1XtXAXZXtXXXx 9 1 R u 7 k > x % % % : > 6 8 c tX:X=X,X-X$XK.[ m.c.2.E I L B a a q.w.| 1 2 ",
"B I 2 0 1 0 v y a | I B L P ^ ` E q.!.`.tX;X#XtXOX9 6 & ' < 3 ' 6 u.< : % % % : 5 9 9 7X%X%X$X}.T.i s l.1.E P L B l a B | | y % "
};
