/* XPM */
static char * east_xpm[] = {
"128 128 3 1",
" 	c #FF0000",
".	c #1F624F",
"+	c #00FFE3",
"                                                                                                                                ",
"                                                                                                                                ",
"                                                                                                                                ",
"                                                                                                                                ",
"     .......................................................................................................................    ",
"     .......................................................................................................................    ",
"     .......................................................................................................................    ",
"     .......................................................................................................................    ",
"     .......................................................................................................................    ",
"     .......................................................................................................................    ",
"     .......................................................................................................................    ",
"     .......................................................................................................................    ",
"     .......................................................................................................................    ",
"     .......................................................................................................................    ",
"     .......................................................................................................................    ",
"     .......................................................................................................................    ",
"     .................+++++++++++++++++++++++++++++++++++++++++.............................................................    ",
"     ................+++++++++++++++++++++++++++++++++++++++++++............................................................    ",
"     ...............++++++++++++++++++++++++++++++++++++++++++++............................................................    ",
"     ...............++++++++++++++++++++++++++++++++++++++++++++............................................................    ",
"     ...............+++++++++++++++++++++++++++++++++++++++++++.............................................................    ",
"     ...............++++++..................................................................................................    ",
"     ...............++++++++................................................................................................    ",
"     ...............+++++++++...............................................................................................    ",
"     ................+++++++++..............................................................................................    ",
"     ..................+++++++++............................................................................................    ",
"     ...................+++++++++...........................................................................................    ",
"     .....................++++++++..........................................................................................    ",
"     ......................++++++++.........................................................................................    ",
"     .......................+++++++++.......................................................................................    ",
"     ........................+++++++++......................................................................................    ",
"     .........................+++++++++.....................................................................................    ",
"     ...........................++++++++....................................................................................    ",
"     ............................+++++++++..................................................................................    ",
"     ..............................++++++++.................................................................................    ",
"     ...............................++++++++................................................................................    ",
"     ................................++++++++...............................................................................    ",
"     .................................++++++++..............................................................................    ",
"     ...................................+++++++.............................................................................    ",
"     ....................................+++++++............................................................................    ",
"     .....................................++++++++..........................................................................    ",
"     ......................................++++++++.........................................................................    ",
"     .......................................++++++++........................................................................    ",
"     ........................................++++++++.......................................................................    ",
"     .........................................++++++++......................................................................    ",
"     ...........................................++++++......................................................................    ",
"     ............................................++++++.....................................................................    ",
"     ............................................+++++++....................................................................    ",
"     .............................................+++++++...................................................................    ",
"     ..............................................++++++...................................................................    ",
"     ...............................................++++++..................................................................    ",
"     ...............................................++++++..................................................................    ",
"     ...............................................++++++..................................................................    ",
"     ...............................................++++++..................................................................    ",
"     ..............................................+++++++..................................................................    ",
"     .............................................+++++++...................................................................    ",
"     ............................................+++++++....................................................................    ",
"     ...........................................+++++++.....................................................................    ",
"     ..........................................+++++++......................................................................    ",
"     .........................................+++++++.......................................................................    ",
"     ........................................+++++++........................................................................    ",
"     .......................................+++++++.........................................................................    ",
"     ......................................+++++++..........................................................................    ",
"     .....................................+++++++...........................................................................    ",
"     ....................................+++++++............................................................................    ",
"     ...................................+++++++.............................................................................    ",
"     ..................................+++++++.......................................+++++..................................    ",
"     .................................+++++++.......................................++++++++++..............................    ",
"     ................................+++++++.......................................+++++++++++++............................    ",
"     ................................++++++.......................................+++++++++++++++...........................    ",
"     ...............................++++++.......................................++++++++++++++++++.........................    ",
"     ..............................+++++++......................................+++++++.++++++++++++........................    ",
"     .............................+++++++......................................+++++++......+++++++++.......................    ",
"     ............................+++++++.......................................++++++.........+++++++.......................    ",
"     ............................++++++.......................................++++++...........++++++.......................    ",
"     ...........................++++++........................................++++++............+++++.......................    ",
"     ..........................+++++++.......................................++++++.............+++++.......................    ",
"     .........................+++++++........................................++++++............++++++.......................    ",
"     .........................++++++........................................++++++.............++++++.......................    ",
"     ........................++++++.........................................++++++.............++++++.......................    ",
"     .......................+++++++........................................++++++..............++++++.......................    ",
"     .......................++++++.........................................++++++.............+++++++.......................    ",
"     ......................++++++..........................................+++++..............+++++++.......................    ",
"     ......................++++++..........................................+++++.............++++++++.......................    ",
"     .....................++++++...........................................+++++.............++++++++.......................    ",
"     ....................+++++++...........................................+++++.............++++++++.......................    ",
"     ....................++++++............................................+++++............+++++++++.......................    ",
"     ...................++++++.............................................++++++...........+++++++++.......................    ",
"     ...................++++++.............................................+++++++.........++++++++++.......................    ",
"     ...................++++++++............................................+++++++++++..++++++++++++.......................    ",
"     ...................++++++++++++++++....................................+++++++++++++++++++++++++.......................    ",
"     ...................++++++++++++++++++++++++.............................++++++++++++++++++.+++++.......................    ",
"     ....................+++++++++++++++++++++++++++++........................++++++++++++++++..++++++......................    ",
"     ......................++++++++++++++++++++++++++++++++++..................++++++++++++++...++++++++....................    ",
"     .........................+++++++++++++++++++++++++++++++++++++.................++++++++.....+++++++++++++++............    ",
"     ................................++++++++++++++++++++++++++++++++++...........................+++++++++++++++...........    ",
"     .........................................++++++++++++++++++++++++++..........................+++++++++++++++...........    ",
"     ...............................................++++++++++++++++++++...........................++++++++++++++...........    ",
"     ......................................................+++++++++++++..............................++++++++++............    ",
"     ............................................................++++++.....................................................    ",
"     .......................................................................................................................    ",
"     .......................................................................................................................    ",
"     .......................................................................................................................    ",
"     .......................................................................................................................    ",
"     .......................................................................................................................    ",
"     .......................................................................................................................    ",
"     .......................................................................................................................    ",
"     .......................................................................................................................    ",
"     .......................................................................................................................    ",
"     .......................................................................................................................    ",
"     .......................................................................................................................    ",
"     .......................................................................................................................    ",
"     .......................................................................................................................    ",
"     .......................................................................................................................    ",
"     .......................................................................................................................    ",
"     .......................................................................................................................    ",
"     .......................................................................................................................    ",
"     .......................................................................................................................    ",
"     .......................................................................................................................    ",
"     .......................................................................................................................    ",
"     .......................................................................................................................    ",
"     .......................................................................................................................    ",
"     .......................................................................................................................    ",
"     .......................................................................................................................    ",
"                                                                                                                                ",
"                                                                                                                                ",
"                                                                                                                                ",
"                                                                                                                                "};
