/* XPM */
static char * miniNo_xpm[] = {
"32 32 3 1",
" 	c #324DBF",
".	c #3FFF00",
"+	c #FF0049",
"                                ",
" .............................. ",
" .............................. ",
" .............................. ",
" ..++............+............. ",
" ..++............+............. ",
" ..+.+...........+............. ",
" ..+.+...........+............. ",
" ..+..+..........+............. ",
" ..+...+.........+............. ",
" ..+...+.........+............. ",
" ..+....+........+............. ",
" ..+....+........+............. ",
" ..++....+.......+............. ",
" ..++....++......+............. ",
" ..+......+......+............. ",
" ..+.......+.....+............. ",
" ..+.......+.....+............. ",
" ..+........+....+............. ",
" ..+........+....+.....++...... ",
" ..+.........+...+...++++++.... ",
" ..+.........++..+..++++++++... ",
" ..+..........+..+..++++++++... ",
" ..+...........+.+..++++++++... ",
" ..+............++..++++++++... ",
" ..+............++..++++++++... ",
" ..+............++..++++++++... ",
" ..+.............+..+++++++.... ",
" ..+..................++++..... ",
" .............................. ",
" .............................. ",
"                                "};
