/* XPM */
static char * north_1_xpm[] = {
"64 64 3 1",
" 	c #FFFFFF",
".	c #A60AFD",
"+	c #C4AC00",
"                                                                ",
"                                                                ",
"  ............................................................  ",
"  ............................................................  ",
"  ............................................................  ",
"  ............................................................  ",
"  ............................................................  ",
"  ............................................................  ",
"  .........+++................................................  ",
"  .........++++..............................+++..............  ",
"  ........+++++..............................+++..............  ",
"  ........++++++.............................+++..............  ",
"  ........++++++.............................+++..............  ",
"  ........+++++++............................+++..............  ",
"  ........++++++++..........................++++..............  ",
"  ........+++.++++..........................++++..............  ",
"  .......++++..++++.........................+++...............  ",
"  .......++++..+++++........................+++...............  ",
"  .......+++....++++........................+++...............  ",
"  .......+++.....++++.......................+++...............  ",
"  .......+++.....+++++......................+++...............  ",
"  .......+++......+++++.....................+++...............  ",
"  .......+++.......+++++....................+++...............  ",
"  ......++++........++++....................+++...............  ",
"  ......++++.........++++...................+++...............  ",
"  ......+++..........+++++..................+++...............  ",
"  ......+++...........+++++.................+++...............  ",
"  ......+++............++++.................+++...............  ",
"  ......+++.............++++................+++...............  ",
"  ......+++.............++++...............++++...............  ",
"  ......+++..............++++..............++++...............  ",
"  ......+++..............++++..............++++...............  ",
"  ......+++...............++++.............+++................  ",
"  ......+++...............++++.............+++................  ",
"  ......+++................++++............+++................  ",
"  ......+++................+++++...........+++................  ",
"  ......+++.................+++++..........+++................  ",
"  ......+++..................++++..........+++................  ",
"  ......+++..................+++++.........+++................  ",
"  ......+++...................+++++........+++................  ",
"  .....++++....................+++++......++++................  ",
"  .....++++.....................++++......++++................  ",
"  .....+++.......................++++.....++++................  ",
"  .....+++.......................+++++....+++.................  ",
"  .....+++........................+++++...+++.................  ",
"  .....+++.........................+++++..+++.................  ",
"  .....+++..........................++++..+++.................  ",
"  .....+++..........................+++++.+++.................  ",
"  .....+++...........................++++++++.................  ",
"  .....+++............................+++++++.................  ",
"  .....+++.............................++++++.....+++++++.....  ",
"  .....+++..............................++++......+++++++.....  ",
"  .....+++...............................+++.....+++++++++....  ",
"  .....+++...............................+++.....+++++++++....  ",
"  .....+++.......................................++++.++++....  ",
"  .....+++.......................................+++...+++....  ",
"  .....+++.......................................+++++++++....  ",
"  ...............................................+++++++++....  ",
"  ................................................+++++++.....  ",
"  ............................................................  ",
"  ............................................................  ",
"  ............................................................  ",
"                                                                ",
"                                                                "};
