/* XPM */
static char * south_xpm[] = {
"64 64 3 1",
" 	c #D74DFF",
".	c #6370FF",
"+	c #000000",
"                                                                ",
" .............................................................. ",
" .............................................................. ",
" .............................................................. ",
" .............................................................. ",
" .............................................................. ",
" .............................................................. ",
" .............................................................. ",
" .............................................................. ",
" .............................................................. ",
" .............................................................. ",
" ................................++++++++++++.................. ",
" ..............................++++++++++++++.................. ",
" ............................++++++++++++++++.................. ",
" ..........................++++++++............................ ",
" .........................+++++++.............................. ",
" ........................++++++................................ ",
" .......................+++++.................................. ",
" .......................++++................................... ",
" .......................+++.................................... ",
" .......................+++.................................... ",
" .......................++++................................... ",
" .......................++++................................... ",
" ........................++++.................................. ",
" ........................+++++................................. ",
" .........................+++++................................ ",
" .........................++++++............................... ",
" ...........................++++............................... ",
" ...........................+++++.............................. ",
" ............................++++++............................ ",
" .............................++++++........................... ",
" ..............................++++++.......................... ",
" ................................+++++......................... ",
" ................................++++++........................ ",
" ..................................+++++....................... ",
" ...................................+++++...................... ",
" ....................................+++++..................... ",
" .....................................+++++.................... ",
" ......................................++++.................... ",
" ......................................++++.................... ",
" .......................................+++.................... ",
" .......................................+++.................... ",
" ......................................++++.................... ",
" .....................................+++++.................... ",
" ...................................++++++..................... ",
" ...............................++++++++++..................... ",
" .................+++++++.++++++++++++++....................... ",
" .................++++++++++++++++++++......................... ",
" .................++++++++++++++++............................. ",
" .....................+++++++.................................. ",
" .............................................................. ",
" .............................................................. ",
" .............................................................. ",
" .............................................................. ",
" .............................................................. ",
" .............................................................. ",
" .............................................................. ",
" .............................................................. ",
" .............................................................. ",
" .............................................................. ",
" .............................................................. ",
" .............................................................. ",
" .............................................................. ",
"                                                                "};
