/* XPM */
static char * south_1_xpm[] = {
"64 64 3 1",
" 	c #2D3EFA",
".	c #A60AFD",
"+	c #C4AC00",
"                                                                ",
" .............................................................. ",
" .............................................................. ",
" .............................................................. ",
" .............................................................. ",
" .............................................................. ",
" ....+++++++++++++++++++++++................................... ",
" ....+++++++++++++++++++++++................................... ",
" ....+++++++++++++++++++++++................................... ",
" ....+++....................................................... ",
" ....+++....................................................... ",
" ....+++....................................................... ",
" ....+++....................................................... ",
" ....+++....................................................... ",
" ....+++....................................................... ",
" ....+++....................................................... ",
" ....+++....................................................... ",
" ....+++....................................................... ",
" ....+++....................................................... ",
" ....+++....................................................... ",
" ....+++....................................................... ",
" ....+++....................................................... ",
" ....+++....................................................... ",
" ....+++....................................................... ",
" ....+++....................................................... ",
" ....+++....................................................... ",
" ....+++....................................................... ",
" ....+++....................................................... ",
" ....+++....................................................... ",
" ....++++++++++++++++++++++.................................... ",
" ....++++++++++++++++++++++.................................... ",
" ....++++++++++++++++++++++.................................... ",
" .......................+++.................................... ",
" .......................+++.................................... ",
" .......................+++.................................... ",
" .......................+++.................................... ",
" .......................+++.................................... ",
" .......................+++.................................... ",
" .......................+++.........++++++++++++++++++++....... ",
" .......................+++.........++++++++++++++++++++....... ",
" .......................+++.........++++++++++++++++++++....... ",
" .......................+++.........+++..............+++....... ",
" .......................+++.........+++..............+++....... ",
" .......................+++.........+++..............+++....... ",
" .......................+++.........+++..............+++....... ",
" .......................+++.........+++..............+++....... ",
" .......................+++.........+++..............+++....... ",
" .......................+++.........+++..............+++....... ",
" .......................+++.........+++..............+++....... ",
" .......................+++.........+++..............+++....... ",
" .......................+++.........+++..............+++....... ",
" .......................+++.........+++..............+++....... ",
" .......................+++.........+++..............+++....... ",
" .......................+++.........+++..............+++....... ",
" .......................+++.........+++..............+++....... ",
" ..++++++++++++++++++++++++.........++++++++++++++++++++....... ",
" ..++++++++++++++++++++++++.........++++++++++++++++++++....... ",
" ..++++++++++++++++++++++++.........++++++++++++++++++++....... ",
" .............................................................. ",
" .............................................................. ",
" .............................................................. ",
" .............................................................. ",
" .............................................................. ",
"                                                                "};
