/* XPM */
static char * test_xpm[] = {
"64 64 3 1",
" 	c #60621F",
".	c #1BE045",
"+	c #3F3CA2",
"                                                                ",
"                                                                ",
"                                                                ",
"                                                                ",
"                                                                ",
"................................................................",
"................................................................",
"................................................................",
"                                                                ",
"                                                                ",
"++++++++++++++++++++++++++++++++++++++++++++++++++++++          ",
"                                                      +++++++   ",
"                                                             +++",
"                                                                ",
"                                                                ",
"...........................                                     ",
"..................................                              ",
"....................................................            ",
"...                     ...................................     ",
"                                ................................",
"                                                  ..............",
"                                                         .......",
"                                                         +++++++",
"+++++++++++++++++++++++++++++++++++++++++++++++++++++++++       ",
"                                                                ",
"                                                                ",
"                                                                ",
"                                                                ",
"   .........................................................    ",
"................................................................",
"................................................................",
".....                                                     ......",
"++++++++++++++++++++++++++++++++++++++++++++++++++++++++++++++++",
"                                                                ",
"                                                                ",
"                                                                ",
"                                                                ",
"                                                                ",
"                                                                ",
".................................                               ",
"................................................................",
"................................................................",
"..+++++++++++++++++++++++++++++.................................",
"                                                             ...",
"                                                                ",
"                                                                ",
"                                                                ",
"                                                                ",
"                                                                ",
"                      ++++++++++++++++++++++++++++++++++++++++++",
".............................................                   ",
"................................................................",
"................................................................",
"+                                          .....................",
"                                                                ",
"                                                                ",
"                                                                ",
"++++........................                                    ",
"................................................................",
"................................................................",
"......                    ......................................",
"                                                                ",
"                                                                ",
"                                                                "};
