/* XPM */
static char *ae93e1e4f5d44c3385656c05ee1904c0kBNn0VMmWWNomTWp[] = {
/* columns rows colors chars-per-pixel */
"64 64 245 2 ",
"   c #0F1E1E",
".  c #101E1F",
"X  c #111F22",
"o  c #0D272B",
"O  c #132124",
"+  c #14242A",
"@  c #1B2429",
"#  c #15292C",
"$  c #1B2B2D",
"%  c #142D32",
"&  c #1B2D32",
"*  c #0E3238",
"=  c #1B3135",
"-  c #17363A",
";  c #1B343A",
":  c #2C2B34",
">  c #282E36",
",  c #24343B",
"<  c #25363A",
"1  c #2B333C",
"2  c #34323D",
"3  c #3B333E",
"4  c #1E403F",
"5  c #0D3942",
"6  c #1B3C44",
"7  c #183E46",
"8  c #233C43",
"9  c #2A3E43",
"0  c #283945",
"q  c #353442",
"w  c #3B3542",
"e  c #094F4F",
"r  c #1B4244",
"t  c #154549",
"y  c #15444A",
"u  c #1A444C",
"i  c #144C54",
"p  c #1B4954",
"a  c #1C4B54",
"s  c #165559",
"d  c #1B545C",
"f  c #24434C",
"g  c #284548",
"h  c #30504F",
"j  c #244552",
"k  c #2B4653",
"l  c #244A56",
"z  c #2A4955",
"x  c #244D5B",
"c  c #2A4D59",
"v  c #364655",
"b  c #285557",
"n  c #22515D",
"m  c #17635F",
"M  c #29655E",
"N  c #195A64",
"B  c #1C5B64",
"V  c #245563",
"C  c #275764",
"Z  c #235D69",
"A  c #335B67",
"S  c #18666A",
"D  c #1C636C",
"F  c #1F7366",
"G  c #1B6772",
"H  c #1D6C74",
"J  c #1A6E79",
"K  c #1B7275",
"L  c #1C747A",
"P  c #167879",
"I  c #1C7A7D",
"U  c #22626D",
"Y  c #29686A",
"T  c #366568",
"R  c #33766C",
"E  c #246571",
"W  c #226C75",
"Q  c #2A6A77",
"!  c #346976",
"~  c #24777B",
"^  c #465C5E",
"/  c #43686A",
"(  c #4D7376",
")  c #687E78",
"_  c #378579",
"`  c #4A805E",
"'  c #69877A",
"]  c #1C7D82",
"[  c #1B7B89",
"{  c #237D84",
"}  c #397888",
"|  c #487D87",
" . c #1D8384",
".. c #1C858A",
"X. c #198988",
"o. c #1D8B8C",
"O. c #1E918E",
"+. c #1E8D91",
"@. c #1E8997",
"#. c #1D9294",
"$. c #1B9699",
"%. c #1D9B9B",
"&. c #258489",
"*. c #218C8E",
"=. c #228E91",
"-. c #2C8B95",
";. c #388794",
":. c #219394",
">. c #229599",
",. c #289799",
"<. c #229C9C",
"1. c #379291",
"2. c #1CA29C",
"3. c #23A39E",
"4. c #32A699",
"5. c #1E9AA3",
"6. c #279BA1",
"7. c #229EA1",
"8. c #399BA3",
"9. c #1DA5A4",
"0. c #1DAAA5",
"q. c #1FAEAA",
"w. c #1EB4AE",
"e. c #22A3A3",
"r. c #2AA7A6",
"t. c #24AAA5",
"y. c #23ACAA",
"u. c #2BACAB",
"i. c #33A7A9",
"p. c #24B3AD",
"a. c #2BB3AE",
"s. c #35B3AC",
"d. c #24B5B2",
"f. c #2BB4B3",
"g. c #24BCB4",
"h. c #2BBCB5",
"j. c #22B6B8",
"k. c #24BCB9",
"l. c #2ABEB9",
"z. c #35B9B6",
"x. c #4B908C",
"c. c #43949C",
"v. c #44A696",
"b. c #50A697",
"n. c #499EA5",
"m. c #48A4A8",
"M. c #55A8AA",
"N. c #4DBBAD",
"B. c #71B1AF",
"V. c #1CC3B8",
"C. c #25C4BB",
"Z. c #2BC4BC",
"A. c #28C7BC",
"S. c #24C9BE",
"D. c #35C4BC",
"F. c #57C3AD",
"G. c #4CCDBA",
"H. c #59CAB6",
"J. c #64CDB7",
"K. c #66D4BD",
"L. c #75D1BC",
"P. c #5DECBE",
"I. c #1FCAC1",
"U. c #2CC7C2",
"Y. c #25CCC2",
"T. c #2ACCC3",
"R. c #32CDC4",
"E. c #38C9C4",
"W. c #25D2C5",
"Q. c #2AD2C5",
"!. c #26D5CA",
"~. c #2AD5CA",
"^. c #26DACC",
"/. c #2ADBCD",
"(. c #34D5CB",
"). c #38D6CA",
"_. c #2CDED1",
"`. c #33DDD1",
"'. c #3ADED2",
"]. c #2BE0CF",
"[. c #2DE2D3",
"{. c #2EE7D9",
"}. c #33E3D5",
"|. c #36E7D6",
" X c #32E5D9",
".X c #35EBDB",
"XX c #3CECDC",
"oX c #3DF0DE",
"OX c #3DF2E2",
"+X c #47D5C9",
"@X c #4ED3CC",
"#X c #45DBD2",
"$X c #74D6C4",
"%X c #4DE6CF",
"&X c #48E7DA",
"*X c #43ECDC",
"=X c #56E3D8",
"-X c #47F1DF",
";X c #68E2C8",
":X c #6EEAD3",
">X c #47EEE1",
",X c #55EEE1",
"<X c #45F4E4",
"1X c #4BF2E3",
"2X c #53F3E4",
"3X c #5BF4E4",
"4X c #58FAEA",
"5X c #6AEFE8",
"6X c #64F4E5",
"7X c #6BF4E5",
"8X c #67F8E9",
"9X c #77F5E8",
"0X c #8E9E86",
"qX c #92C9B7",
"wX c #AFCEBF",
"eX c #87D7C6",
"rX c #A5E3D7",
"tX c #87F6E8",
"yX c #94F5EA",
"uX c #98F7E9",
"iX c #9BF5EA",
"pX c #90F9F1",
"aX c #A4F6EA",
"sX c #ADF6EA",
"dX c #A5F8EB",
"fX c #B7F1E2",
"gX c #B3F6EB",
"hX c #BCF6EC",
"jX c #B4FBED",
"kX c #BCF9EE",
"lX c #A3FBF0",
"zX c #B8FDF2",
"xX c #C3F6ED",
"cX c #CAF7EC",
"vX c #C4F9ED",
"bX c #CCF9ED",
"nX c #D4FAED",
"mX c #DEFAED",
"MX c #C8FCF2",
"NX c #D6FAF2",
"BX c #DCFBF1",
"VX c #E8F5EC",
"CX c #E1FAED",
"ZX c #F7F7EF",
"AX c #E1FBF1",
/* pixels */
"B.+ O O O O + + o O + + @ X X + . X X . X X X X X   X   . . .   O       .       X X X X X # $XeXeXeXL.L.L.L.;XK.K.K.K.J.H.H.F.F.",
"O O O + O O O + O O @ X @ X @ @ @ @ : @ : @ @ @ > > & = @ $ @ $ $ $ $ $ @ O O O X 8 ; & & + e s S m S F x.J.$X;XL.K.J.J.J.H.F.F.",
"= > & , , 9 , > > > : 3 2 2 2 : 2 2 2 2 : : > , < 9 1 , < , = ; $ $ $ $ $ $ $ $ + 7 0 6 6 y 5.3.3.3.<.#.#.M.v.1.b.L.J.L.J.F.F.F.",
", 9 g g 9 , q 1 1 q w w 3 3 q w 3 3 3 2 2 1 , 0 9 9 9 , < , , > & & > > @ $ $ $ ; 0 j l 0 p p.p.p.t.t.t.t.l r r t _ M.b._ _ R M ",
"9 g g g 9 1 1 q w w w w 2 2 2 2 w w w 2 1 > 9 , 9 9 < g 1 < 9 = & & = & $ $ = = = 6 0 z 7 l a a l b N S ,.j f u u u f f b 4 t _ ",
"f 9 8 8 , 1 q w w w q q q 1 q q w w w q 9 < g f 9 9 9 g 9 9 9 8 ; 8 8 ; & > = = k j j x * y r r - y r y y r y y r r y t s s m XX",
"j f f f k k v v w v 9 v v 9 w v v v v v 9 k k k h g f g g f f 9 9 8 9 6 ; ; , - ! c x n p i p u y p y p u r t r u y u a s m _ .X",
"l l j j j k k k c x j k c k A ^ ^ / v v c c l c h j z k z z f j j p j 6 6 8 f 6 E A T ! L ~ a p a a a a p t p a a d s N K 4X0.w.",
"x x n 0 l c c z c c x x j c / ) 0X0X0X( v A c c x l x x z z j p 7 j p 6 0 x l j E A } A B V B V V C B Z B B N N S I i.a.p.2.w.w.",
"V n V V c c x c V x x x c A ) 0X' ) ) / / A C V x x x x x C x x x c p 7 7 x V A } V } } B B B D D J [ z.C.g.C.C.C.C.g.C.oXA.A.p.",
"Z V V V C C C V V x V x A A | ' ' c ( A / A C C V V V V ( C x n d x l p 7 V V | V } } } L X.h.C.T.~.T.T.Y.U.U.S.A.A.T.S.V.t.g.<X",
"D E U E E E E Q Q } ! } ! ( ) | | Z ( ! ( ! U Z N Z Z V ( V d V p V x V V V p } C } } V &.*.@.5.U.%.9.h.f.7.q.Z.C.C./.p.y.$.a.,.",
"G D G E G E G G G Z D N E E D D N G B ! D Z E Z E E U Z ( E Z Z N Z V V V N n } } } } [ [ -.$.5.T.k.U.k.>.7.g.'.^.^.}.Y.d.3.t.>.",
"[ G J J W J L H G J G { W J W J W Q W ~ } Q Q { E W E } x.Y E E U D N N N V n { [ } } [ { k.~.~.~.~.T.!.U./._.2X[.{.9X/.A.d.Z.<.",
"-.-.-.{ -.&.&.[ [ ] { -.n.8.{ { [ -.;.n.n.M.M.M.n.n.n.qXc.c.8.c.c.;.;.G G Z E Q } [ } [ [ ~.R.j.R.T.j.U.Y.!.[.[.lXnXMX}.8X/.2Xe.",
"u.f.+Xz.6.#.>.>.8.8.8.8.8.8.m.m.n.M.M.M.M.M.M.m.n.n.n.L.,.-.-.8.8.;.} [ [ G ;.{ } } } 5.6.U.D.C.0.y.y.u.C.j.T.[.pXuXNX|.|.Y.4Xy.",
"y.j.U.A.A.S.Y.T.S.Q.Q.~.A.s.r.`.(.u.r.i.u.i.f.&XR. X{. X X X_.j.R.y.-.8.8.8.M.[ } -.{ =.>.~.~.!./.~.~.~.p.y.g.Y./.*XbX_.W.Y.4Xd.",
"l.j.C.T.Y.Y.T.T.Q.~.~.~.g.u.a.w.u.Z.f.f.f.U.k.`.T.{.[. X X{._.d._._.T.l.8.8.n.[ -.8.-.=.6.!.^./.~.~.!.!.W.g.Z.Y.(.[.MX/.Q.C.4Xj.",
"k.(.U.Q.T.T.T.!.Q.~.~./.C.d.p.d.p.g.f.f.l.Z.U.}.Y.`.[. X{.[.[.k.!._.!.l.8.@.8.@.6.8.-.$.7.!./.!._.!.!.!.~.W.W.V.~.[.*X`.[.&X*XU.",
"~.T.Y././.~./././.[././.C.g.Z.k.T.Z.k.C.`.T.`.}.`./.{.{.[.{._.C._._._.j.i.8.8.8.8.i.>.7.e.W._.!.!.!.!.!.W.W.W.T.~.^.[.7X/.Q.Q.&X",
"}._././.[./.[.[.[.[.[.}.W.S.T.~.Y.Y.Y._.}.!.}.'. X!. X[. X.X[.Q.~.~._.D.z.8.i.6.i.i.r.y.p.W./.^.^.!.!.^.!.Y.W.g.!.^.^.lXY.!.!.8X",
"*X*X*XXXXX*XXX*XoXoX.X.X/./.W.[.~.~._..XXX`.XXXXXX}.}. X.X.X[./. X!.`.E.i.i.6.u.f.i.f.j.g.^._./._._.^.^.!.!.W.j.W.^.W.zXY.W.!.<X",
"7X7X6X6X6X6X6X3X3X2X1X*X}.|.`.`.`. XXX<X<X<X1X1X<XOX|.*X<X<XoXoX X X Xz.z.5Xu.u.f.z.U.U.Q.^.[.[._._._.^.!.!.!.C.^./.!.zXY.!.^..X",
"sXaXaXiXiXuXuXyXpXtX7X3X1X*XXX}.oX1X8X8X9X8X9X9X9X3X*X8X8X8X3X1X<XOXXXE.z.=Xj.j.z.z.`.`.}.{..X.X X{.{.^.!.!.^.Y././.^.jX!./.^..X",
"cXbXvXvXvXvXxXhXkXgXlX9X6X,X,X,X5X9XpXaXaXaXsXaXdXtX9XiXuXuXtX9XpX4X<XE.U.z.l.z.z.E.oXXX>X<X1X<X>X<XoX[._._.}.[.{.}.[.kX[.[./.{.",
"BXBXAXBXmXBXmXmXNXnXbXsXiXtX9XtXyXsXhXxXvXvXvXvXvXsXsXzXkXjXlXiXlXpX,XE.U.+Xl.U.E.U.XX&X>X1X2X3X3X8X4X>XXXXX*X>X-XXXoXkX[..X{..X",
"mXmXCXCXmXmXmXmXAXmXBXhXgXBXaXiXgXNXBXBXnXmXBXBXNXcXbXbXbXbXhXfXhXlX9X@XR.+XU.U.R.R.3X6X5X9X9X7X8X7X7X=X3X3X8X8X6X3X4XMX1XOXoX.X",
"BXmXAXmXCXmXmXmXmXmXBXxXxXCXsXsXhXBXAXBXmXmXmXCXAXBXAXAXnXnXnXcXNXhXiX#XE.).T.~.E.).tXaXaXsXdXdXdXiXiXyXtXyXiXaXyXtXtXbX6X4X3X-X",
"CXCXmXmXCXBXmXmXmXCXmXbXxXCXsXgXcXmXmXAXmXmXmXmXAXCXCXmXmXmXCXCXBXNXzX@X@X).~.(.#X@XhXvXvXxXcXcXvXkXkXhXgXkXkXhXjXgXsXNXtXtX9X4X",
"mXmXBXCXmXCXCXCXmXmXmXbXxXCXhXsXxXCXCXCXmXmXmXmXmXAXmXmXmXCXmXCXVXNXrX=XyXR.(.).#XMXAXAXAXmXmXnXNXnXnXbXnXnXmXBXmXnXnXmXsXgXsXtX",
"nXnXnXmXAXCXmXBXmXBXCXbXhXCXxXsXvXmXCXBXmXCXmXmXmXmXmXCXmXmXCXCXBXBX:X=XzX`.).#X=XAXCXCXAXCXCXCXCXmXmXCXCXmXCXmXmXmXCXmXhXCXAXCX",
"hXnXNXmXmXBXmXmXmXCXCXxXgXBXbXaXhXBXBXCXmXmXmXCXmXmXCXmXCXCXCXmXmXVX5X=XlX(.`.#X=XCXCXCXmXmXCXCXCXmXmXmXCXmXmXmXCXmXCXmXbXmXCXAX",
"9XtXuXaXaXhXhXcXnXBXBXsXuXNXsXyXaXmXmXmXCXCXAXCXmXmXmXmXAXCXCXCXCXCX5X#X@X).`.#X=XCXCXmXCXmXCXmXCXmXAXmXmXCXmXAXCXCXCXnXnXmXmXmX",
"&X-X=X7X9XtXtXyXyXuXtX5X7X:X6X7XyXCXCXmXmXnXnXnXnXnXmXBXnXnXAXAXCXCX=X#X+X).(.#X=XmXCXCXmXmXmXmXAXmXCXBXmXmXBXCXmXCXCXbXmXCXCXxX",
"`.}.|.*X&X-X2X3X3X3X,X>X*X1X&X&X6XyXgXxXnXnXmXmXcXmXBXBXAXBXNXbXnXhX#X).).~.(.'.=XCXmXCXmXmXCXCXAXmXCXmXmXmXmXCXCXCXmXvXbXnXnXfX",
"Q.~.[.`.}.}.}.XXXXXX}.`.`.XX}.|.&X7X9XtXtXuXuXaXtXtXcXfXyXyXuXBXbXMX(.Q.(.T.T.).'.xXxXnXnXnXnXbXbXNXnXBXmXmXmXmXCXCXmXbXcXmXmXiX",
"V.Y.~.~./././.[.}.[.[.Q.Q.].~.`.].1X2X3X,X3X6X7X=X6X9X9X7X6X7X9X6X,XD.A.U.A.A.(.).kXNXCXmXmXmXsXdXdXaXaXfXbXnXmXbXgXaXaXtXdXsX6X",
"A.Y.~.S.T.T./.^.W./.^.C.C.Q.Z.Q.Q..X.X X{.XX1X<X|.>X1X3X3X1X>X2X*X-XA.Z.A.Z.A.A.A.2X7X7X9X9XyXyXpXuXtX9XtXuXuXaXdXtX7X7X,X-X*X.X",
"g.S.S.S.S.Y.~.W.~.W.!.g.g.W.k.C.A.[.[./.^._.}.}./..XOXXXOX.X[.XX}.S.Z.a.h.A.Z.Z.S.|.&X-X-X-X-X*X*X*X&X*X6XpXtX9X7X2X-X3X.X|.|.].",
"0.S.C.C.S.S.T.Y.Y.T.C.p.p.C.p.p.g./.].Y.W.W.}.[./. X.X X.X/..X/.[.A.p.D.a.a.g.a.A././.}.}.XX{.}.}.{.}.}.XXXX-X8X.X.X|.4X/./.~.Q.",
"3.9.Z.d.g.l.Z.T.Y.S.w.t.t.9.k.y.p.Z./.C.W.W.}./.^.[.{.{.{.I.}.Y./.a.t.@Xu.y.a.y.h.S.W./.[././.[.]./././.].[.}.[.].{.6X].W.~.A.C.",
">.%.7.<.e.y.f.T.g.T.t.9.<.9.9.e.t.y.C.C././.^./._.[.[.{._.I./.Y.S.3.<.9X6.r.3.3.h.S.!._.^.^./././.^.W.W.~.S./.~./.{.jXW.S.Q.S.A.",
"=.:.>.>.<.7.e.t.e.6.<.e.9.<.<.9.2.t.d.d.g.^.g.^.].[.].[.{.V._./.C.@.=.N.,.6.>.<.y.d.Q.!.^./.^.!.W.W.W.W.Q.A.~.W.~.{.pXS.~.A.q.XX",
"+.>.>.#.>.7.7.5.e.:.o.O.:.:.:.#.<.<.e.}.p.}.A./.(.[.[.[._.d.g./.g.*.*.=.&.=...o.3.t.Q.W.W.W.W.W.W.W.Y.S.S.C.Q.S.~.XX}.S..XC.y.t.",
"o.>.#.@.#.>.$.$.:...*.*.o.:.=.o...*.#.a.0.C.w.w.3./.[.[.I.y.e.~.y.{ {  .~ &.] &.#.<.T.W.W.W.T.W.Y.Y.Y.S.Z.Z.Y.S.~.7XW.~.[.A.S.>.",
"+X<.:.:.>.>.:.>.o.&...o.o.*.*.=.+.*.*.o.O.%.<.<.,.3.e.l.A.2.<.Q.#.~ L K L K K I *.:.T.Y.I.Y.Y.Y.S.S.C.Y.C.C.W.S.~.jXY.S.W.~.OX+.",
"w.d.j.j.`.#Xy.e.>.=.+.o.*.:.o.o.o.*.*.:.O.O.o.:.O.O.2.E.a.%.Z.2...W H H S S W ~  .*.Y.S.Y.Y.S.S.S.C.V.S.C.A.W.S.].tXC.W.W.{.w.o.",
"o.....7.j.d.j.j.j.k.k.C.U.Z.u.:.:.=.*.:.*.*.O.*.O.X.&.X.&.X. . .I D D U U D E H I ..A.C.S.S.C.S.C.k.C.C.p.S.W.S.9X^.W.W._.OX@...",
"+.f.j.#Xg.r.*.#.e.u.a.f.d.k.j.k.k.`.l.>.:.:.:.:.*. ._ X. .] P I H B B B B B Z G ....q.9.l.k.k.j.k.p.e.C.a.S.|.Q.jXS.^.!.[.V...+.",
"=X$.t.9.<.a.j.&XZ.r.e.2.<.9.$.#.e.f.k.Z.W.'.E.d.g.*...P  .P P L G d d B a d d N H P +.0.7.d.w.w.k.o.o.>.p.S.~.-X.XW.[.Y.<X$. .C.",
"o...r.k.R.e.,.:.#.%.V.Y.Y.Y.W.~.}.C.g.y.%.l.T.!.S.D.t.o._ P K K W a a a p a a B S K I ] ..] P ] ..+.<.t.C.A.W.kXW..X{./.0...$.#.",
"+.).9.{  .#.d.g.k.&Xk.p.5.%.r.u.r.h.C.Q._..X~.'.Z.Q.~./.(.p.:.&.S a p u u p u d N K I I  .] ] ]  .O.e.p.W.S.-XoXY.6X|.<XX. .&Xg.",
"s N H *.%.R.1Xp.d.y.h.Z.A.*Xk.a.3.2.3.t.p.V.S.S.Q.*Xp.2.A.C.k.d.i.u u r 6 7 7 N S P X.&.[ I _ ] *.#.y.S.<X[.kX/.C.g.C.Z.#.9.9.g.",
"i d d S 4.&...6.y.T.4XC.h.e.:.t.S.S.1XS.S.S.S.S.3.0.%.A.~.t.X.<.,.r u - 6 6 7 G ~ I O.%.$.o.X.X.o.<.p.Y.XXjXbX!.W.p.<X#.X..Xo.[ ",
"y i G.&.P I { o.z.a.O.i.a.+X,XZ.D.s.A.S.].}.8X|.Z./.-XA.p.p.S.k.X.r u 6 7 ; 7 -.5.5.u.$.{.9.@.@.*.t.k.Q.*XbX9X/.[.p.4X=.] V.+.S ",
"g 6 y W t.D.X./.0.,.3.3.D.D.e.F.G.%X3X%XG.D.3.p.D.:.O.p.Y.~.$.<.~ 6 b ; ; = 5 [ [ >.%.5.[.w.$.I./.T.2X1X&XcX'.S.A.Q.a.L P @.1Xs ",
"b - 4 - M a _ Z.Q.`.'.'.s.N.G.H.;X;XP.P.G.%X6X%XG.i.$.2./.g.`.+X&.; / ; = = = [ [ [ @.5.5.5.q.[ L  .Q.Y.S.6Xw.9.:.4XK B.'.[ G i ",
"= = 4 4 M M 4 F MX~ D.).%X=X:X:X:XeXqXP.P.G.D.4.G.%XC.X.~ I S ~ Y ; T & & & % i [ [ @.@.@.@.@.$.@.7.g.o.+.8X .J S 4Xs G H.1Xi 5 ",
"$ $ $ $ $ 4 4 b b.B.Y vXmXv.$XfXCXrXeX:X:XP.D.4.v.qX&._ ~ I K W a ; ' & & & % ] J [ [ [ [ @.@.[ [ ..o.+.X.a.m s s G.e Z.E S 5 * ",
"= # # # $ = = = , T M _ AX( b.CXwXZXZXVX:X%X%XD.s.ZXO._ ~ K S S b = x.@ & % % N G G ] [ [ [ [ [ ] ] [ [ [ ..] s y s s ).s p * % ",
"- g h h F dXR g 4 - ; h b R ' qXVX' qXmXM.H.+X).#Xv.'.3._ _ P S b > ( + # & % N D G G J J [ ] J G J J J J J G G N i E.i 2.5 % o ",
"b.M M R R 4 g s ;X( M _ R b ; M ' ` qXfXZXR xXCXv.v.%X}.}.3.P P F $ ^ & & + % i N i s N N S G G N G S S S S N N s N s y X.- * % ",
"M s s.:XF R 4 % r b 4 F uXM h Y h h 4 M / M _ gXfXx.vX|.*X).~.Y.a.& 9 $ + & % p s S S N N s s y y y 5 5 5 5 i i i i i e % * % o ",
"- r b.b.- - % = s :XB.v.v.M 4 J.B.M g $ < r 4 4 T M L.aX*.:.T.V.S = & + + + X 5 i s e N s e i 5 y 5 y y 5 5 * * o o o o o o o o "
};
