/* XPM */
static char *_bf9cef871484df0ab733fe3cd4d01336bNwuRqKiq3V0Bdn[] = {
/* columns rows colors chars-per-pixel */
"64 64 213 2 ",
"   c black",
".  c #0A0709",
"X  c #0D0B0D",
"o  c #120D0F",
"O  c #0F0E10",
"+  c #120E12",
"@  c #141114",
"#  c #191416",
"$  c #161419",
"%  c #1B151A",
"&  c #1D181E",
"*  c #21171B",
"=  c #231A1D",
"-  c #291C1E",
";  c #1E1920",
":  c #251C21",
">  c #2A1E23",
",  c #2E1E25",
"<  c #2E1F29",
"1  c #2E2125",
"2  c #2C2126",
"3  c #2E2229",
"4  c #312227",
"5  c #312229",
"6  c #312429",
"7  c #33242A",
"8  c #33252B",
"9  c #34252B",
"0  c #36252C",
"q  c #35262D",
"w  c #38272C",
"e  c #34282C",
"r  c #39282E",
"t  c #352630",
"y  c #372832",
"u  c #3B2A33",
"i  c #3E2C3A",
"p  c #3C3238",
"a  c #412E36",
"s  c #422E3B",
"d  c #443036",
"f  c #45323D",
"g  c #4B343D",
"h  c #463241",
"j  c #4B3543",
"k  c #4D3745",
"l  c #463841",
"z  c #4E3945",
"x  c #4D3748",
"c  c #4F394A",
"v  c #503743",
"b  c #513945",
"n  c #5A3D47",
"m  c #543C4B",
"M  c #593E4D",
"N  c #573F50",
"B  c #5B3D51",
"V  c #7F374F",
"C  c #4B4046",
"Z  c #56434C",
"A  c #5A414D",
"S  c #5C4353",
"D  c #5E4857",
"F  c #61424C",
"G  c #67504F",
"H  c #614554",
"J  c #694656",
"K  c #634A56",
"L  c #6A4A55",
"P  c #624759",
"I  c #654A5B",
"U  c #6A4D5D",
"Y  c #784252",
"T  c #724E5A",
"R  c #685258",
"E  c #6D525D",
"W  c #74525E",
"Q  c #78525D",
"!  c #5F5D61",
"~  c #6D4160",
"^  c #6C4E60",
"/  c #744C66",
"(  c #6E5262",
")  c #735464",
"_  c #7A5663",
"`  c #755A65",
"'  c #795A65",
"]  c #755669",
"[  c #795569",
"{  c #765A6A",
"}  c #7A5B6C",
"|  c #7E5D71",
" . c #696567",
".. c #776569",
"X. c #75646C",
"o. c #7C636C",
"O. c #796A6F",
"+. c #7E6572",
"@. c #7D6E73",
"#. c #7E7074",
"$. c #BA194A",
"%. c #A33A53",
"&. c #CE0E49",
"*. c #B54D57",
"=. c #9A7759",
"-. c #825868",
";. c #935B6B",
":. c #835D73",
">. c #885C74",
",. c #81636E",
"<. c #8A626E",
"1. c #846474",
"2. c #8A6577",
"3. c #846B74",
"4. c #896A76",
"5. c #89647A",
"6. c #846B79",
"7. c #8A6B79",
"8. c #946578",
"9. c #817176",
"0. c #837279",
"q. c #8E717C",
"w. c #997877",
"e. c #93727D",
"r. c #A4787B",
"t. c #898755",
"y. c #A8865A",
"u. c #B99369",
"i. c #A38374",
"p. c #D4B27B",
"a. c #D7DF7C",
"s. c #DEE876",
"d. c #8D7381",
"f. c #947682",
"g. c #947B84",
"h. c #997A86",
"j. c #967989",
"k. c #9B7D8B",
"l. c #A07A84",
"z. c #B07D87",
"x. c #988488",
"c. c #9A838D",
"v. c #9E8191",
"b. c #9F8A92",
"n. c #A68188",
"m. c #B3888C",
"M. c #A28595",
"N. c #AC8493",
"B. c #A38A96",
"V. c #A58B99",
"C. c #A98D9C",
"Z. c #B88F98",
"A. c #A7929A",
"S. c #A9939D",
"D. c #B8939B",
"F. c #AC92A0",
"G. c #AF99A1",
"H. c #B296A4",
"J. c #B39AA6",
"K. c #B99EA4",
"L. c #B69BAA",
"P. c #BA9EAC",
"I. c #94A5A0",
"U. c #B6A4AD",
"Y. c #BBA3AD",
"T. c #BEA4B1",
"R. c #C4A394",
"E. c #E0BB88",
"W. c #C09FA8",
"Q. c #E09FAB",
"!. c #C2A5AD",
"~. c #C8A4AB",
"^. c #C1A6B3",
"/. c #C3AAB5",
"(. c #CAAEB4",
"). c #C6AEBA",
"_. c #D5ACB3",
"`. c #CCB2B6",
"'. c #C7B0B8",
"]. c #CBB2BC",
"[. c #D2B6BD",
"{. c #E6EE86",
"}. c #E2C7B6",
"|. c #EAE5B7",
" X c #CCB6C0",
".X c #CEBAC2",
"XX c #D3BCC4",
"oX c #D9BCC3",
"OX c #D3C1C6",
"+X c #DBC2C5",
"@X c #D5C3CA",
"#X c #D9C6CB",
"$X c #DCC9CD",
"%X c #DDCCD2",
"&X c #E0C4CA",
"*X c #E2CDCF",
"=X c #E3CED2",
"-X c #EACDD6",
";X c #E2D1D5",
":X c #EAD3D6",
">X c #E5D5DA",
",X c #EAD6DA",
"<X c #E6D8DC",
"1X c #ECDBDD",
"2X c #EBDDE1",
"3X c #EEE0E2",
"4X c #F2E3E5",
"5X c #F6E6EA",
"6X c #F8E7EC",
"7X c #F7E9EB",
"8X c #F9E9EB",
"9X c #F9F0EF",
"0X c #FCF4F2",
/* pixels */
"                                                                                                                                ",
"                                                                                                                                ",
"                                                                                                                                ",
"o o o + + # + + o o + # # # % # # # % # % # % # % # * * % % % % * % * % # * % % % # % % % # * * * % * % * % % $ % % % # # # @ o ",
"% % % * * = = * * = = = > : : > : > : > = > > 2 > > > > > , , , , 1 > > , > , > > > > > , , > , , , > > < > , , > > > : > : : % ",
": , < 5 5 7 0 t t t u r u a s u a s s s f f g k k k k j k k k k j v v k z k z k j j h h f s s s f i s s s i i y u u t 5 0 0 5 < ",
"+ + # o # # # # # * * * * * * = = = = = : 2 - = > > > > > , , , < < < < < < , , , , , > > > > > : > > : : : * : * * * * % % % % ",
"@ # # # # % % # # * * * = = = : > = > : : : 1 - - > > > > > > > : , > > > > > > > > > > > : > > : : = : : : : * * * % % % % # + ",
"@ # # # # % % % * = = - - 1 1 - 1 - 6 1 1 6 1 3 4 6 0 7 7 0 7 0 7 0 0 8 0 5 7 7 0 0 e 0 0 5 5 5 4 4 4 4 1 , > = : * = % % # % # ",
"# = # # = - - - - , 4 - 1 - 1 1 4 4 4 4 6 7 0 0 4 0 0 0 0 0 0 0 0 0 0 0 0 0 0 0 0 7 7 7 5 5 5 5 0 4 < 1 1 1 1 > : : - % * % % # ",
"# = = - - - 1 1 4 4 4 4 r 0 e e w w 0 r e e w r r r r r r r r u r r r r u u e u r u u 0 e w r 0 0 0 0 7 7 5 7 7 , < > = & & % # ",
"= - - 1 4 e w u a a a a d d d d g d g d g g d g g g g g g g g g g k g g g g g g g g g g g g g g g s f d d i a r r 0 0 > - 1 = % ",
"p C C G R R R R E E W W W W ` ` W ` ` ` ' ` ' Q ' Q ' ' ' ' ' ' ' ' _ ) ` _ ) _ _ W / W E E U U L L L L L F H Z Z Z z g d p 3 1 ",
" .*X@X7X8X8X7X7X8X8X7X8X8X8X8X8X8X8X8X8X8X8X8X8X8X8X7X7X8X8X8X8X8X8X8X5X5X8X5X5X5X7X6X8X4X5X5X5X5X4X4X4X4X4X4X4X4X4X3X1X'.@X .f ",
"9.` OX<X7X9X0X0X0X0X0X0X0X0X0X9X0X0X0X0X0X8X0X0X0X0X0X0X0X0X0X0X0X0X0X0X0X0X0X0X0X0X0X0X0X0X0X0X0X0X0X0X0X7X0X0X9X0X4X;XOX{ O.U.",
";XU...T.1X7X0X0X0X0X0X0X0X0X0X0X0X0X0X0X0X0X0X0X0X0X0X0X0X0X0X0X0X0X0X0X0X0X0X0X0X0X0X0X0X0X0X0X0X0X0X0X0X0X0X0X0X3X<XU.' U.%X%X",
"3X3X@Xq.A.;X4X0X0X0X0X0X0X0X0X0X0X0X0X0X0X0X0X0X0X0X0X0X0X0X0X0X0X0X0X0X0X0X0X0X0X0X0X0X0X0X0X0X0X0X0X0X0X0X0X9X4X$Xg.x.$X1X2X1X",
"1X3X2X;XA...OX$X+X+X$X$X$X$X$X&X*X*X$X*X*X*X*X*X*X*X%X=X=X=X=X=X;X:X;X=X;X=X;X=X;X=X;X;X;X;X;X=X=X=X;X;X;X*X*X;XY.../.<X1X2X1X1X",
";X<X<X<X%XJ.Z W A F J F G L L T G W T T Q Q Q Q Q _ _ _ Q Q ' ' Q ' -.Q ' -._ _ Q Q Q Q W Q W T T L T L L A A o.o..X;X<X<X<X;X%X",
";X>X>X;X;XOXX.p u a d f d g g g g g g z g b g g v v v v Z b b b v n b b v v b v g C b g Z  .z g g g g g f d f f Y.$X;X>X<X<X%X%X",
"%X;X>X;X=XXXd.u e w y u u u u a a s s s d s s f f f f f f f f h g f g f f f f f g g f f ! I.z f g z b a 0 t y C T.%X%X>X>X>X%X$X",
"%X%X;X;X%X.Xc.u w i f f f j k z m b m m Z Z M M m S S S H S S S S H S S S S S S H A A Z M M m m m v c f a a 3 ( T.#X%X>X%X%X$X@X",
"@X%X%X%X#X.XC.u j H m z M B H I U U ^ ) ] } } } :.:.1.2.5.5.5.5.5.5.5.5.5.5.:.:.:.} } [ [ / ^ U P H m m M S 8 +.'.@X%X%X%X%X#X.X",
".X@X#X%X#X].A.{ 7.M A h j m m S B H P I U U ( ) ( ) ) ] [ } { } | } } [ ] } ] ) ) E / U U U P D m m z k j 7.m k.U.OX#X#X#X#X.X.X",
"]..X@X@XXX XC.d.).B B j j j z m M B S S D P I U ^ ^ ( ( ] ] ] ] ] ) ( ( ( ( ^ ^ ^ I P I P D S H Z m S z j !.} B.T..X@X@X.X X X).",
"). X.X.X XT.k.d. XP S j l j z Z S S D D P I I U ^ ( ( ] ] ] ] ] ] ] ] ] ) ( ( ^ ^ U I I P D S m z j j z k `.+.C.J..X.X.X.X X XT.",
"^.^. X X].T.C.#.XXH S h h j l k z b m m S S D D I R I ^ R ^ ^ R I ^ I I I I P P D S S S S Z m S z j D h g `.1.M.L.T.]..X XT.T.T.",
"T.T.^.T.T.L.k.+.oXj.c.c.c.v.b.b.B.B.C.A.A.A.S.A.F.A.A.A.S.S.S.S.A.S.S.S.S.A.A.A.A.A.A.A.C.C.S.B.B.V.c.c.g.oXo.M.F.T.).)./.T.P.L.",
"L.L.T.T.P.F.d.X.[.m j f g z m B S K U ^ ( ] ] ) ) ( =.u.T.U ..w.N.l.K K P K S I S S S S D B B N S N m m b /.o.j.j.L.T. XT.T.T.L.",
"L.L.L.L.L.M.d.( [.+.S f f h j m m S D P I I ( ( ) ) y.p.%XV Y ' D.m.t.A m z h.r.k.m M S D P D N m z m m b T.} d.d.F.L.U.P.P.P.L.",
"H.H.H.H.C.v.d.^ [.l.8.g h j k m S D H P I ( ( ( ] ( G.$X-X$.%.' Z.R.a.G n v ~.z.H.k c N N B D D N N N N m Y.{ +.d.M.F.H.H.L.L.H.",
"C.C.C.C.M.j.+.D `.l.D.z h j z Z S D P U ( ( ( ] ( ( G.%X,X&.*.w.D.R.s.R n n (.m.N.) ] | +.d.I ^ ^ B S S B T.X.{ d.j.v.C.C.F.F.F.",
"V.M.M.M.v.q.O.Z `.e.n.m A K R Q _ _ } ,.1.2.4.4.4.2.u.E.:X&.*.w.r.i.{.x.w.f._.m.e.;.m.n.e.<.-.-.[ T / / J g./ U U | 5.j.k.B.B.V.",
"V.V.M.M.j.3.' C (.D.K.K.!.`.`.[.[.[.[.[.[.oXoX+X+X+X}.}.:XQ._.`.+X+X|.*X*X$XoX(.`.`.`.`.(.(.L.d./ ~ ~ B k k k f h s f f B ] d.k.",
"k.k.j.f.d.+.W g K.!.[.*X*X-X*X*X=X-X:X:X:X:X:X:X:X,X,X,X,X1X1X1X1X1X1X1X1X1X,X,X`.S.K.OX[.D.:.-._ >.8.U L Q ..W b < > % % # & Z ",
"k v z b b m n C L L E ) Q ' ..3.,.1.3.4.7.4.9.w.e.e.f.f.w.h.h.w.h.x.l.k.l.k.k.e.<.,.W ` W E ) T L M g M L <.Q F n J 4.o.3.e.7.7.",
"# # + + @ o @ # + # # # # # # # % % * * * * * - - - = 2 1 1 1 1 1 7 1 e 0 w 0 7 2 - = # # # % & # # # # e f e - % = 3 0 3 8 5 3 ",
"+ + + o @ @ o @ o + o + @ @ # @ # # o # # # # o # # # # # $ # # # # # # # # # # # # # # # @ # @ # + @ @ # # # # % @ 3 3 3 3 3 3 ",
"= = = : = = - 1 1 1 4 4 1 2 3 1 4 4 e e e e e e e e e 7 7 7 3 7 e e e e e e e y e e e e e e e 3 4 1 1 1 6 6 2 2 2 : 0 t t t t t ",
"X o o o o o @ o o o @ @ @ @ $ # # # # o o # @ @ # # o # # # # # # @ & : : # & & = # # # # # # # # # # # # # $ @ # @ @ @ + @ @ @ ",
"@... .O.O.O.@.@.#.#.#.#.#.#.#.#.#.#.#.#.#.#.#.#.#.#.#.#.@.@.#.#.#.#.#.9.6.#.0.0.0.0.0.0.0.0.0.0.0.0.0.0.0.0.0.@.3.@.@.@.@.@.+.@.",
"2 2 2 2 2 2 2 2 2 2 2 2 3 1 3 1 1 1 1 2 2 2 7 1 1 2 2 2 2 : 1 1 1 1 e f h j l h h h h h h h f f f f j h j j j j j j l x j x x l ",
"2 2 2 2 2 2 2 2 2 2 2 2 3 1 1 2 1 : 1 2 2 2 2 2 2 2 2 2 1 2 2 2 2 1 3 f h h j l j l h j h j j j j z j k x x x x z c c c x x c c ",
"2 2 2 2 2 2 2 2 2 2 3 7 e 3 3 1 1 1 1 2 2 2 2 2 2 2 2 2 2 2 2 2 1 1 3 l l x x c j l k j k j z x m b m j m x c c c m c N c x N x ",
"= 2 : 2 2 2 2 : 2 2 2 2 2 2 2 2 2 2 1 # $ $ # & # & # & # # # $ % % & 2 2 3 3 3 3 3 2 3 3 i j j j k k l j x x x x x x x x h x h ",
"2 2 2 : : : : 2 2 2 2 2 2 2 2 2 : : 2 : 1 : : - : : : : 2 : 2 1 = 2 ; e f p i f h i f i i x l x k z z z x c x x j j x x c x x x ",
"O O @ @ @ @ @ O O @ @ @ @ O @ @ O O O @ O @ @ X @ @ @ @ O O O @ @ @ @ % ; ; & ; ; ; ; & ; & & ; ; & ; ; & ; & ; ; $ ; $ ; $ ; ; ",
"@ @ @ O O O @ O @ @ O @ O @ @ O @ O @ O @ @ O @ O @ O O @ @ @ @ O O O $ & & $ $ $ $ & & ; & & $ & ; $ & ; ; & $ ; ; $ ; ; ; $ $ ",
"@ o + @ @ O @ O @ @ @ @ @ O @ @ + O O O $ O O $ O $ O O O @ @ O O $ O $ ; ; ; ; ; ; ; ; ; ; ; ; ; ; ; & ; ; ; ; ; ; ; $ ; ; $ $ ",
"@ @ @ O O @ @ @ O @ O @ @ @ @ O O $ $ O O $ O $ O O @ $ @ @ O @ O O $ $ ; ; ; ; ; ; ; ; ; ; ; ; ; ; ; ; ; ; ; ; ; ; ; ; ; ; ; ; ",
"+ @ @ O O @ O @ @ @ O @ O @ O O + + @ + O $ O O O @ O @ O O O @ $ O + + ; % ; % ; ; ; ; ; ; ; ; ; ; $ ; ; ; ; ; ; ; ; ; ; ; ; $ ",
"o o @ O O @ O + O O O O @ @ O @ + + O O $ O O + O O O O O O O O X O + + + ; ; ; % ; ; ; ; ; ; ; ; ; $ ; $ $ ; ; $ ; ; $ $ $ ; % ",
"+ o o O O O + O O O O O O O O O O O O O + + X + @ O @ O X O O @ O O O O $ $ ; ; ; ; ; ; % % % % $ $ % % $ $ $ $ $ $ $ $ $ ; $ $ ",
"+ o o + O X X X O O O O O O O O O X X X O X + X O O X X O O X X O O O O $ $ % % $ % $ $ $ $ $ $ $ $ $ % $ $ $ $ $ $ $ $ $ $ $ $ ",
"+ + o o + X X X O O O O O O O O X + X + + X + o O O O @ @ O @ @ + + + + $ % % % % $ $ $ @ % % @ $ % @ $ $ $ $ $ $ $ $ $ @ @ $ @ ",
"@ + + + + o + + o O O @ @ @ @ @ % # + % + % @ $ $ # % $ $ % % % & $ $ ; % $ ; $ ; % % $ % % $ @ $ @ @ $ + + + + O O + + + $ + + ",
"+ + + + + + + + o O O + # # @ % # % % % % # % % % % % * % ; ; % & ; * * % ; ; ; : ; * % ; % % % % $ % $ $ @ @ + $ $ $ + + + $ $ ",
"# + # # @ + # @ @ @ @ # # # # % # * % % % * * * % % * * : % : : * * : * ; ; : * % : ; * ; * % % % % $ % $ @ $ $ + $ + $ $ $ $ + ",
"+ + + + + # @ @ @ @ X o + + + + + + @ @ # % @ $ % $ % % $ % % % ; % % % % % % * : % ; % % % % % % @ $ @ $ + + $ $ $ + $ + $ + + ",
"+ + + + o + + + @ @ % % % $ + + + # + @ + # + $ @ @ @ $ % + # $ $ @ $ + @ @ % @ + % % # $ $ $ % % @ @ $ + * % + O + + + + + + + ",
"X X . . . . . . . X + O . . . . X . . . X X X X X X X X X X X . . X X X X X X + X X X + X O O + X X X X O O + X . X . O X X X . ",
"                                                                                                                                ",
"                                                                                                                                ",
"                                                                                                                                "
};
