/* XPM */
static char *_c36e16b34f84fd09245ae6023f8f74bGI3ylXCeSrNY5oTQ[] = {
/* columns rows colors chars-per-pixel */
"64 61 212 2 ",
"   c #030304",
".  c #080407",
"X  c #07060A",
"o  c #09070B",
"O  c #0D0B0E",
"+  c #0E0D12",
"@  c #110E14",
"#  c #120F18",
"$  c #121016",
"%  c #14131B",
"&  c #19161E",
"*  c #19191A",
"=  c #161622",
"-  c #191622",
";  c #171824",
":  c #1A1925",
">  c #1D1D2C",
",  c #1E1F31",
"<  c #231726",
"1  c #221D2C",
"2  c #2B1D2F",
"3  c #34192F",
"4  c #211F31",
"5  c #2C1E31",
"6  c #351C32",
"7  c #3B1D34",
"8  c #3C1F38",
"9  c #1F202F",
"0  c #1F2133",
"q  c #22212E",
"w  c #222234",
"e  c #2B2334",
"r  c #24253A",
"t  c #29253B",
"y  c #26293E",
"u  c #2A2A3D",
"i  c #312235",
"p  c #33233A",
"a  c #3B2239",
"s  c #411F38",
"d  c #44213A",
"f  c #242740",
"g  c #2B2741",
"h  c #262941",
"j  c #2B2C43",
"k  c #2C2E4A",
"l  c #3C2642",
"z  c #312C45",
"x  c #3C2B46",
"c  c #322E4A",
"v  c #3C2C49",
"b  c #2E3046",
"n  c #2E314C",
"m  c #333245",
"M  c #32334D",
"N  c #38374A",
"B  c #3B3B4D",
"V  c #2F3251",
"C  c #323453",
"Z  c #3B3654",
"A  c #353955",
"S  c #3A3B54",
"D  c #343659",
"F  c #3A3759",
"G  c #36395B",
"H  c #3A3C5C",
"J  c #363B60",
"K  c #3B3E62",
"L  c #3A3F69",
"P  c #452543",
"I  c #452C44",
"U  c #492E47",
"Y  c #462C4D",
"T  c #4C2F4A",
"R  c #473047",
"E  c #43314B",
"W  c #4B324A",
"Q  c #50364F",
"!  c #4C2F53",
"~  c #453354",
"^  c #4C3454",
"/  c #43395B",
"(  c #4A3A5D",
")  c #553551",
"_  c #563657",
"`  c #543C5C",
"'  c #423F62",
"]  c #583860",
"[  c #3E4157",
"{  c #3E415D",
"}  c #3D4165",
"|  c #3D426A",
" . c #3E4570",
".. c #45424F",
"X. c #42425B",
"o. c #47475A",
"O. c #414364",
"+. c #4D4364",
"@. c #464A65",
"#. c #4B4C65",
"$. c #42456B",
"%. c #4B476A",
"&. c #444A6D",
"*. c #4C4C6A",
"=. c #524566",
"-. c #4E5164",
";. c #54566C",
":. c #424772",
">. c #4B4771",
",. c #444A73",
"<. c #494D74",
"1. c #464E79",
"2. c #494E7A",
"3. c #544D75",
"4. c #594D73",
"5. c #4B5274",
"6. c #4C527B",
"7. c #585576",
"8. c #50557C",
"9. c #5B537B",
"0. c #545B7C",
"q. c #69466B",
"w. c #6E4D72",
"e. c #66567C",
"r. c #715177",
"t. c #5D637F",
"y. c #4D5682",
"u. c #4F5986",
"i. c #525782",
"p. c #5F5681",
"a. c #535B84",
"s. c #5B5C84",
"d. c #545D8A",
"f. c #5A5E8C",
"g. c #645482",
"h. c #6A5C87",
"j. c #5B6184",
"k. c #5B638C",
"l. c #5B678C",
"z. c #576292",
"x. c #5D6593",
"c. c #5F6894",
"v. c #5E6A99",
"b. c #666787",
"n. c #62698B",
"m. c #73638B",
"M. c #606593",
"N. c #636B95",
"B. c #646D9B",
"V. c #6D6A98",
"C. c #756896",
"Z. c #677095",
"A. c #6A7296",
"S. c #67719E",
"D. c #6B739C",
"F. c #6C789F",
"G. c #76799A",
"H. c #636EA1",
"J. c #6671A1",
"K. c #6B74A3",
"L. c #6E79A4",
"P. c #6B76A8",
"I. c #6E7AAB",
"U. c #7275A3",
"Y. c #727CA5",
"T. c #727DAB",
"R. c #787FAF",
"E. c #87709E",
"W. c #877BA1",
"Q. c #7985A5",
"!. c #7581AD",
"~. c #7A85AE",
"^. c #7582B3",
"/. c #7B85B4",
"(. c #7E8AB4",
"). c #7987B8",
"_. c #7E8ABA",
"`. c #8E82A7",
"'. c #828DAB",
"]. c #9487AE",
"[. c #8892AE",
"{. c #818CB4",
"}. c #828EBC",
"|. c #998BB3",
" X c #8592B6",
".X c #8B95B3",
"XX c #8492BD",
"oX c #8995BC",
"OX c #8A99BD",
"+X c #949CB9",
"@X c #96A2BC",
"#X c #8591C1",
"$X c #8996C4",
"%X c #8D9AC6",
"&X c #8E9BC9",
"*X c #909FC2",
"=X c #919ECB",
"-X c #94A3C3",
";X c #9CA5C7",
":X c #95A2CE",
">X c #97A4D0",
",X c #99A5D2",
"<X c #A3ACC5",
"1X c #AFB6D0",
"2X c #B9C3DB",
"3X c #BDC6E5",
"4X c #C8CBD9",
"5X c #C5CEE1",
"6X c #C9D2E9",
"7X c #D1D6EC",
"8X c #D5DDEE",
"9X c #DEE3EC",
/* pixels */
"> > , w r j.n.3.h f r w , , , > : > ; > > > > > , 1 , > > ; ; ; ; ; ; ; ; : : ; : ; 9 > > > 1 > > > > > : > > : : ; ; ; ; : : ; ",
"4 t g z c c z z z g g t f t f 5 r e y r t r t e e r 5 4 4 q 1 > 1 : < : < : : 1 < < 1 1 1 > q 1 4 1 1 4 1 : : 1 : > > : < : > 1 ",
"a l Y ) ! _ _ ` ] _ ^ ! Y l l l x x x m P P I P P P P P d d d a 7 7 7 3 3 3 6 3 a 7 7 a d d d d d d s 7 a 7 7 6 7 3 a 3 6 6 7 8 ",
"j k c V O.{ } G F C C b j j j g u y u b b j b j z u u u u u u N N r w q 1 q q q w w e e u B M j u t t t u w q 9 w q q q q w r e ",
"k k V n J J { 5.J V k k h h h y y y h h h y y h y r 0 0 0 0 0 [ N 9 > > > : > > 9 9 9 9 y b h y r 0 0 C 0 0 9 9 9 > > > 9 9 > 0 ",
"k C G V } | 8.} J G V k k h h y y h h h j j j y y r y 0 y 0 0 0 9 > 9 > > > > 9 9 9 > q 0 r 0 y 0 0 C h 0 0 0 9 > > > > > > 9 0 ",
"C H J J ,.,.| | L G G G V n b b h h k h j y h y y y y y 0 0 y 0 9 9 9 > > > > > 9 q 0 w 0 0 0 y r 0 0 0 0 0 0 9 9 > > > > > > 0 ",
"D L } &.6.1.,.1.,.| | } G C n n h k k b b b b b h h y y h 0 y 0 9 > > > 9 > 9 9 9 9 0 0 0 0 r y y 0 0 0 0 0 0 9 > > > > > > > q ",
"K | } k.k.a.u.k.x.j.<.&.} } A V C C C n n n b b M M k j j h y ..S 0 9 9 9 9 > 9 q w w w u m m y y 0 0 r 0 0 w 4 0 9 9 9 > 9 9 9 ",
"&.5.,.Z.a.5.5.t.0.5.@.O.H A A A A S C A A C C C C C k k j j j ;.-.0 0 9 > 9 1 9 > 9 9 w m X.B u t r r w 0 , 4 > > > > > 9 > > q ",
"C.E.E.|.].].|.|.].`.W.G.C.m.m.h.h.e.h.e.e.r.r.r.w.q.w.q.q.` ` _ Q Q E R U U U U W W W ) ) ) _ ) ) ^ ! T W T T U I P I I I R W W ",
"4.g.7.#.e.b.b.n.b.0.e.7.-.+.+.%.=.=.=.%.+.( / ~ ~ ~ E x l l p p i i 2 q e 2 e e 5 e e i e p p p p p p e i p i 5 e 5 w 2 5 5 5 e ",
",.8.j H Q.~.(.Q.!.Q.Q.F.0.X.} O.} { G G A C C C M n k u r w 4 > q > : 9 9 9 > > q > , , 0 0 r r w 0 0 0 > 0 > > > > > q 0 0 > w ",
"| ,.[ 0.(.OX(.Q.F.OX(.(.*.0.5.5.1.&.| { G G G A A j t t r r r , > > > > 9 9 9 q q w w w 0 w 0 0 0 r 0 y r 0 0 0 > 9 9 w , w t r ",
"&.<.t..XOXOX@XOXOX-X@X Xt.Z.j.u.0.5.<.| | } G G D h y r w w , , 9 > > > q 9 9 0 w w w w r 0 r r 0 h 0 y w w w 0 0 9 9 w 0 r w e ",
"8.0.b.b.Q.(.(..X.X.X'.G.t.n.0.0.5.5.&.@.} { G G C h t r r w , , > > 9 : q 9 > > > w 4 0 0 0 0 r y 0 0 0 w 0 > > 9 > > 0 0 0 0 r ",
"[.u.k.l.D.U.L.L.K.D.c.Q.Q.Z.Z.N.Y.Z.a.A.N.x.k.6.3.F V j f 4 0 r 0 h b b 0 > > 9 > , 4 0 0 0 0 0 0 0 0 0 0 9 > 9 > > : r b b y r ",
"T.l.I.#X%X&X%X%X}.).L.5X2X~.c./.D.n.&.~.T.I.v.T.h.' :.J D V k V k k A G 0 > 9 r j j r y b V k b n k b C y h j y r 0 9 r A A k n ",
"L.K.XX>X:XA.Z.l.{.#XoX8X[.D.Y.!.T.j.6.(.B.Y.Y.k.g.y.y.L J D V V n k A A 0 9 0 0 k N y h V G k b { A V } n b M b r w > r D M b C ",
"Z.I.}.>X-Xt.j.5.}.XX;X8XG.N.x.F./.8.6.(.T.K.K.A.g.u.y.1.| J D V V h n C 9 ; 0 y b A y j V H k k n C C *.C j B M r r > w A C k V ",
"x.!.oX,XOXj.c.l.=X#X*X7XB.Y.k.S.T.&.a.}.P.Y.P.D.g.d.y.L L J D V V j C C 9 r 9 0 j j k j C O.b n C [ C A M y h b u 0 u 9 C C k C ",
"8.~.oX,X~.5.0.j.=X}.*X4X{.B.Y.K.K.} N.!.P.L.B.U.h.d.y.y.L L D V n G A M 9 ; 9 0 j j t y n O.k b n { A { B h j h r 9 9 0 / S G G ",
"y.S.=X,X>X&X&X:X=X#X<X<XD.{.J.T./.O.D.!./.B.J.N.h.d.y.y.:.L D D k G G S 9 ; 0 r j j r h n @.b n A b n C h y b b y 0 : 9 G F G V ",
"z.!.>X>X:X&X&X%X=X}.1X+XR.x./.B.D.<.Y.~.I.J.H.V.f.u.y.y.:.L J D V H A M 9 w 9 r b j r j b H V A h n n n b y j b r 0 u > A G H C ",
"S._.>X>X&X$X&X$X#X*X6X.XS.S.B.~.F.5.~.U.T.K.M.J.h.d.u.2.L L L J k H D C > ; w r j j j h n n V A b n b n b h k n y r ; 9 A G H A ",
"K.(.>X>X&X$X$X$X#X:X8XQ.~.d.U.R.Z.<.{./.U.B.B.V.f.d.y.2.y.L J D V H c M > ; w u b b r B n n V b n n { n h h j b r r ; : n h J C ",
"L.).:X=X&X$X$X$X{.+X9XZ.n.R.L.v.0.5.{.B.R.B.B.V.f.d.u.y.:.L J D k H w C 9 ; 9 w j j t j n { y n n C -.n b h b b 0 m 9 ; M r } C ",
"S.XX=X&X$X_._._./.@X9Xt.F.M.Y.T.&.6.(.I.J.J.z.C.d.u.y.:.L L J D k H w c : : q w k k 0 h b 5.j b b C @.n n 0 h n 0 r ; 9 M r H V ",
"I._.&X$X_._.).).K.5X4Xk.x.D.N.Y.} a.{.K.K.B.B.h.d.u.y. .L L J D M C t j q ; 9 w j t 0 j k [ b b n b @.b y r y j w r : 9 b h H C ",
"!.$X$X_.).^.^.^.T.8X1XD.k.x.B.B.G N./.K.K.N.B.g.d.y.y.y.L L J D C A M j q ; 9 0 j y 0 h h k b b A C #.h j r t j w w : r j S D C ",
"!.#X#X).^.^.^.^.'.6X+Xa.d.x.M.B.} D.!.B.x.B.M.g.u.y.' '  .L J D M C C y q ; > w j y 0 j b h j b C j -.h j 0 t j w , ; > g Z A C ",
"K.).).^.^.I.I.P.B.3XY.s.a.N.d.d.} F.B.M.B.f.B.g.u.y.y.L L L J V M C n y > = > w u r r h k b y M M j *.h y 0 y j w w = > r C C A ",
"L.^.!.c.v.K.I.I.S.1Xl.,.i.d.H.s.&.V.B.B.f.f.d.g.y.1. .L J D D k M M j r 1 ; 9 0 y r > h j ;.r N j h *.y y w y h 0 , : > r M C B ",
"H.I.,.[ { | P.v.D.oX5.a.6.f.x.8.$.I.M.x.d.M.f.p.y. . .J D D V V c c Z r > & > 0 y e , t h o.w M y 0 #.j u 0 r t w 0 ; : e M M M ",
"H.H.1.&.| 8.v.z.K.S.6.| i.f.d.&.} U.f.x.x.f.s.3.:. .L J D V V k u j z , : ; : 9 y r > j y j b u B y -.t r , r g , 0 : = > c j j ",
"v.z.[ } C y.z.y.J.a.<.<.<.i.k.H K U.f.d.i.9.e.>.1. .L J V V k k j g j 1 > = : 0 r 0 ; b j r j j y 0 #.t t > w w > > ; = 1 z j u ",
"d.y.G } V y.u.6.d.,.5.O.6.8.8.C %.V.6.f.x.i.e.>. .L J D V k f h u u j > : & : > r w 9 b t t h M j r o.u e > r r > > ; & > M c u ",
"y.y.6.1.6.<.1. .,.| $.,.$.8.i.k 3.V.d.y.s.2.4.K L G V V k k f k t z j > q ; > > e w ; b t B r j g , Z r r > w w 1 : ; q : c k u ",
" .,. .1.:.$.} M A O.$.O.<.$.>.C 9.f.2.i.<.i.] F V n j f t r r r j j j > < ; : 9 r 9 > m r S 0 e B > m w w > 0 w 0 > ; ; = j j z ",
"A G G A C k k g r F K K $.<.%.V 9.s.i.,.8.2.' k f t w > 1 > , , j u u ; & = : > w 9 > w 0 u 9 0 w N r w , ; > w > : : & & u g M ",
"| &.| | L J D c g K H ' &.' ' V g.8.<.2.<.6.~ C V k k h f y r 4 u g j = q * > > w 9 : j w j w w w N w w , > > e , > = q ; u j j ",
"| A A V G G D j r H / H $.>.F V g.<.8.,.,.>.~ G D k h f f r f f u u t = % & ; 9 q 9 : m 0 e > e 1 w w w 9 : > 1 > = ; % % r u u ",
"V m S u V D V t t K F K K ' F c p.<.,.$.:.$.~ D V V k f f f r 4 w t t & % % = > q > ; b w w > e 1 1 w > > : > 1 > = = & % w j w ",
"V h M t C V k r u ~ ' F ' $.k c 9.$.$.&.' &.~ C V k f f r 0 , , 4 r w & % & = > q : ; u > 1 > 1 > : > 1 > : > 1 > : = & = 4 t 4 ",
"u u g r k V $.r t / / K F ' k c 9.$.&.L $.' E V k k f f f , , , w t w % % % % > > ; ; m > w q 1 : : > > > = : > > = & % & 1 t , ",
"j E z j k k o.w M X./ A K K r Z 3.K $.' K ' v k k f f , , , , 4 t w q % $ % & > > ; & u > > = = : : 1 > 1 = : > > % & % % w j t ",
"j j h k j j > > j Z z F Z F r ~ 8.' K K K F k k h f f f , , > 4 t t e % % % % > > ; & u : > : ; : 1 e : > = : : > % & $ % 1 t t ",
"j y h f t t > > z g c Z c c r =.' K K J F v g f f f , , , , 1 4 r w 1 % $ % * : > : & m < : ; : : u > : : & ; > : & & @ % 1 w r ",
"r r r , f 4 > : g c g c Z k w ` ' J D D A x h f r f , , , > > 4 w w : % $ & & : > : : : : : ; & > p : : : & = : : : % $ % : w w ",
"w , , 4 , , > > g t z k g g w =.c C F C F l f f 0 , , , > > > 4 q w : % + % : : : & & : : : & : N : : ; : : : : : ; : $ * & w w ",
", , , , , > : > 5 g g g c r 4 ` C C c Z c p y , , , , , > > > 4 1 1 : % $ ; & & * & % q : & & e E : : & ; % % & : % & $ % & > : ",
"> , , , , : - , 4 g t g j , 1 ` j M c k c 6 , , , > , > > : : 4 : < : $ $ % % = & & % e : & % ..: & : & = % % & < $ % $ % % : & ",
"> ; ; > ; ; = < 5 4 e t t > 2 _ g j j c g 5 , > > > ; ; ; ; ; 2 : 1 & # + @ # & & % $ ; & - ..e & * & & & $ % % & % $ @ $ $ < * ",
"= ; = ; ; ; = , 4 e w 4 w : 5 ^ g g j t g 3 > , > > ; > ; ; = 4 & : & @ O % # & % % $ > % & m & % 9 : % & # @ % % $ $ @ @ $ : % ",
"= = = = ; = = , 4 1 4 w 4 : i x g t g c v 2 < ; = ; ; = ; = = < & : % + O % @ % % % # & % % % % % q % % % @ @ % & @ $ $ $ + : & ",
"# = = = = = # ; < 1 q 1 1 = a p f 4 g f 6 - - - = = = = = = # > ; ; % + O @ @ % % $ + & % % % @ q & % % % @ @ % % @ $ O $ + & ; ",
"# # % % % # # < < > < > > = 8 5 4 4 4 f 2 - = = % = % = & % % : & - # O O # O % % @ + % @ % % # q $ * $ * + + $ % + @ @ O @ * * ",
"# # # % # # & - : - < < - # 8 , , , , , < = = - % % % % % % % < - = @ * O @ O % @ @ O & @ @ O < $ $ $ @ $ + + $ $ + O O * O & & ",
"# # # # # # & - - < - - & # 7 > ; > > , < # # # # # # # $ $ $ & & & @ @ O + O % @ + O % @ @ $ & $ + @ @ $ O O $ @ @ O O O O & & ",
"+ # + # # + # = - - - < # # 7 : > > ; , & # # # # # $ + $ $ @ & & & O O o + O + @ + O + @ @ @ @ + @ @ + @ O O O O O O O O O % & ",
"X     X o   .   . X . . . . + o X X X o X                     .   .     .     .                 . .                             "
};
