/* XPM */
static char *_84bbdfe446f4aaccd1c7bb119921ad8Y4rxFZ3RuZrebt6J[] = {
/* columns rows colors chars-per-pixel */
"64 64 210 2 ",
"   c #0E0907",
".  c #0A0609",
"X  c #0E0C0C",
"o  c #110907",
"O  c #110C0C",
"+  c #180D0F",
"@  c #0E100F",
"#  c #12100F",
"$  c #0E0F11",
"%  c #130E11",
"&  c #190E11",
"*  c #0F1012",
"=  c #121114",
"-  c #1B1315",
";  c #161519",
":  c #1A161A",
">  c #17181D",
",  c #1B191D",
"<  c #210C11",
"1  c #211117",
"2  c #23131A",
"3  c #2A161D",
"4  c #211B1E",
"5  c #31181E",
"6  c #1D1B22",
"7  c #231621",
"8  c #2D1722",
"9  c #221D24",
"0  c #2D1A24",
"q  c #241E2A",
"w  c #2A1D2C",
"e  c #311721",
"r  c #341A24",
"t  c #381C26",
"y  c #361D2B",
"u  c #3B1E2A",
"i  c #2C1F30",
"p  c #1C242F",
"a  c #252027",
"s  c #26212A",
"d  c #2A232D",
"f  c #30222F",
"g  c #3D212C",
"h  c #262231",
"j  c #2C2632",
"k  c #2E2935",
"l  c #2E2A38",
"z  c #332432",
"x  c #3A2737",
"c  c #3D2434",
"v  c #342A36",
"b  c #342C3B",
"n  c #3B2D3B",
"m  c #37313D",
"M  c #3A303E",
"N  c #43232F",
"B  c #452434",
"V  c #442B3A",
"C  c #4C2A3B",
"Z  c #552D37",
"A  c #41313E",
"S  c #58343F",
"D  c #372E41",
"F  c #3A2F40",
"G  c #373040",
"H  c #3C3343",
"J  c #3D3649",
"K  c #423546",
"L  c #4C3447",
"P  c #443947",
"I  c #423649",
"U  c #443A4C",
"Y  c #4A3C4E",
"T  c #5D3243",
"R  c #54394B",
"E  c #453C51",
"W  c #493E53",
"Q  c #4D3F58",
"!  c #523C54",
"~  c #533E5A",
"^  c #6C3B4A",
"/  c #733D4B",
"(  c #40444F",
")  c #5F464C",
"_  c #454357",
"`  c #4C4154",
"'  c #4D4359",
"]  c #534356",
"[  c #53445B",
"{  c #5C435A",
"}  c #52485B",
"|  c #5A4A5B",
" . c #76414E",
".. c #64475B",
"X. c #694459",
"o. c #554A62",
"O. c #5D4B65",
"+. c #5A4C64",
"@. c #4F5160",
"#. c #5C5666",
"$. c #5D536B",
"%. c #57596D",
"&. c #5F5A70",
"*. c #624D64",
"=. c #6A4C66",
"-. c #645265",
";. c #6A5266",
":. c #63546C",
">. c #6C556A",
",. c #6E5A6E",
"<. c #79566A",
"1. c #735A6E",
"2. c #635B72",
"3. c #6A5B74",
"4. c #6B5B75",
"5. c #735D74",
"6. c #785B75",
"7. c #6B6277",
"8. c #766075",
"9. c #7B6174",
"0. c #72637C",
"q. c #7B667C",
"w. c #91586B",
"e. c #83667C",
"r. c #826C7E",
"t. c #756682",
"y. c #7D6680",
"u. c #756983",
"i. c #7D6A83",
"p. c #7E6F8A",
"a. c #777689",
"s. c #856B81",
"d. c #8B6C83",
"f. c #846F8A",
"g. c #847286",
"h. c #83718C",
"j. c #8B738B",
"k. c #8B7B8A",
"l. c #927B8E",
"z. c #877791",
"x. c #957E94",
"c. c #987C93",
"v. c #A57F94",
"b. c #8C8497",
"n. c #9C859A",
"m. c #A2899C",
"M. c #AE889D",
"N. c #A1949D",
"B. c #9288A0",
"V. c #9C96A9",
"C. c #A68BA3",
"Z. c #A28CA2",
"A. c #B88CA3",
"S. c #A494A8",
"D. c #AC95AB",
"F. c #A29BAD",
"G. c #AB9CAD",
"H. c #B496AA",
"J. c #B499AC",
"K. c #B49DB1",
"L. c #A8A1B3",
"P. c #BEA4B6",
"I. c #B5A8B7",
"U. c #BBA6B9",
"Y. c #BEABBA",
"T. c #C7A7BA",
"R. c #C2ABBC",
"E. c #A9AEC1",
"W. c #B5AAC2",
"Q. c #BCB1C2",
"!. c #B9B6C7",
"~. c #C6ADC0",
"^. c #C5B3C4",
"/. c #CAB4C3",
"(. c #C6B8C5",
"). c #CBB9C6",
"_. c #CBB7C9",
"`. c #C6BBCC",
"'. c #CDBCCB",
"]. c #D7B9C9",
"[. c #D2BDCC",
"{. c #C6BCD3",
"}. c #D0BFD1",
"|. c #CEC0CE",
" X c #D3C1CE",
".X c #CBC7D5",
"XX c #D5C3D2",
"oX c #DAC3D3",
"OX c #D6CAD5",
"+X c #DBC9D6",
"@X c #D6CBD9",
"#X c #DDCDDA",
"$X c #DDD2DD",
"%X c #E1C6D9",
"&X c #E1CDDB",
"*X c #E2D4DE",
"=X c #E4D9DF",
"-X c #CECFE1",
";X c #D6CDE0",
":X c #DBD6E5",
">X c #E3D6E1",
",X c #EAD7E4",
"<X c #E5DAE3",
"1X c #E9DCE5",
"2X c #EDE1E6",
"3X c #EDE1EA",
"4X c #F4E8EE",
"5X c #F9EEF2",
"6X c #FCF4F2",
"7X c #FDF8F4",
/* pixels */
"( a.a , 6 9 ] ] ;.;.;.9.e.r.d.d.d.e.<.6.<.;.z d d d b b d j j z I L K { =.5.;.*.*.:.q.=.s.6.o.~ ~ ~ ! ~ [ ~ ~ ~ [.oXo.x.~.:X+.+.",
"e.P.d 4 6 !.v v v v v v v v x n v v v v v v j s w w F H j j j j I I I W W z.g.B.I.^._.}._.{.'.|.XX@X_.^._.}.;XK.}.[.[.>XK.D.Y.R.",
"v.@.I p J.C.'.d Y.|.|.(.(.).R.'.).).r.| x F n 8.V.F.Q.`.`.`.`._.`._._.).).).(.).[. X}.XX+X+X+X#X+X&X+X^.#X+X_.Y.d.+X'.[.+XY.}.K.",
"0.#.R.K.B.U...H |.L.b.q.m.'.[. X X X'.|.[.'.[.'.[.'.'.'.).).'._._._._._.).'.'. X}.}.}.XXoX+X+X+X#X#XT._.~.[.oX%X].{ oX}. XoX+X[.",
"F.R.P.n.I.J.H g.Z.[.[.'. X#XY. X X|. X[._././.T.T.T.J.j.;.L V c x v z z f f f f i i j z D E +.2.0.t.t.t.t.t.t.u.0.f.] _. X[. X4X",
"Y.OXn.m._.I j 9 j b b M n H P #.k.F.I.Q.G.S.n.c 8 0 0 7 a z n A n n f y w 9 0 9 w x o.o.O.$.$.:.:.:.3.3.3.3.t.5.i.f.f.! [.+X).>X",
"L.l.c.$Xx 0.b.! C.D.^.'. X<X1X3X2X2X<X*X#X[.R.L 0 8 x V C V B B B B B N B B B B 8 B [ Q ~ o.o.' +.+.$.O.$.+.$.:.5.f.g.p...R./.R.",
"R.r.G.9.L j.D.P.Y.Y. X/.N.5X6X7X7XY.+X5X3X*XXXR M.1.T C B C N N N N g g g u u u y u u E E Q ' Q ' ' [ o.o.~ o.O.:.6.5.q.n.J.J.T.",
"r.q.b.n 8.q.n.C.n.K.&Xj.*X1X5X5X5Xr.4X1X*X].R.K <.X.R B B B u u u t t t t r t y y y t K J U U U E E W Q Q Q [ [ o.$.y.y.5.R J.Y.",
">.9.%XP [ -.w 8.5.r.;.D.Y.K.R.T./.G.R.C.c.j.c.P C V B g g t t t r e r e e e e e 8 e 0 Y D H H H J J J J U E W I Q [ O.*.*.+.m.C.",
"*.n.R 6 U ] P [ ] ] 5.5.>.,.=.>.1.q.8.,.>.;.-.V N g g r r r 5 r 5 3 3 3 8 3 3 3 8 8 3 d b D b D D H H H H H K H I E Y I ! I z d.",
"| <.a J H P P H I I U W U ` Y Y ` ` ` U ` Y L z r e 3 3 3 3 3 3 3 3 3 3 3 3 3 7 2 3 3 8 l l b b l l b b b D D G F H F J K D 9 c.",
"Y e.4 m b b m v m m m m m m b m G M m m M b b d 0 3 3 3 3 2 2 2 2 2 1 2 2 2 2 2 2 2 2 2 j j j j b j l l k l l l b b b b b b a q.",
"K 5.> k j k k k k k k k v k k k k k v k k k j 7 4 1 1 1 1 1 1 1 - 1 1 2 2 - 1 2 - 1 2 1 d d d h h d h j j j j j h j j j k j k , ",
"P | > a d s s s s d d h d d d j d d d d s d s , 1 1 1 - 1 - 1 & & - - 1 & - & & - 1 - - 6 9 q s 9 s s q d q d d d q s s s s s : ",
"` s * a 9 , 9 p a q 6 a s 9 a a 9 9 p a 9 9 9 - - - - - & & & & & & & & & & - & & - - & s 6 9 6 6 6 9 9 6 6 6 6 9 9 p 9 9 9 9 , ",
"Y 9 > 6 6 ; 6 6 p > 7 p 7 7 p 7 6 7 6 6 6 6 6 ; & + + & & + % & & % % - % O + + + = & + $ 6 6 6 6 6 > 6 6 > 6 6 p 6 6 6 6 7 6 ; ",
"H , , , > ; 6 6 > > > > > > > > > > 6 > > > > = % & O & O + + & + + & % + + % + % + % % % ; ; 6 > > > > > > ; > 6 6 > > > p ; 6 ",
"j O > > > ; ; > > > > > ; ; ; > > ; > > > > ; = % O O % O O O O O O + O + O O % + % O + % ; ; ; ; > , ; ; ; ; ; ; ; > ; ; 6 ; 6 ",
"d % ; ; ; = ; ; ; = > ; ; ; ; ; ; ; ; = = ; = $ % O O O O O O O O O O O % O O % O % % % $ = ; ; ; ; ; ; ; ; ; ; ; ; ; ; = ; ; = ",
"h . = = * * ; = ; ; > ; = = ; = = ; ; $ = = = = % O O O % O O O O X O O X O O X . % O O O = = = ; = = ; ; = ; ; ; ; ; = ; ; > > ",
"6 $ * $ * $ = = * = $ = = = $ = = $ ; $ = $ = = X O X % O X O O O $ X % O O O % % % % $ % = = = = = ; ; = = ; * * ; = ; = = = = ",
"6 $ $ = $ $ = $ $ = = = $ = = = = $ ; ; $ = $ $ X O X o X $ % X O O O X O X X O % O O X . : $ ; = ; = ; ; ; * ; ; ; = = ; = 6 = ",
"p . $ $ $ $ = $ $ = $ = = = = = $ $ = $ = ; $ = X % O X O X O X X X O O X O X O X O O O $ $ ; $ = = ; ; = ; = ; ; $ ; = ; ; > ; ",
"6 . * * * * * * * * * $ $ ; $ = ; = = = $ $ $ $ $ $ . . X O X O X O O X X X X O O X O X O X = $ ; = = = = = = ; $ ; ; = = = = = ",
"9 . * * X * * * * # * * = * % = $ ; = = ; $ = $ $ $ = . O X X X O X O X X O O X O X o O O X = = = ; ; ; = ; = = $ ; $ ; = ; = ; ",
"p . * * * @ * * $ * = $ * $ * $ = = = = $ $ = $ O . $ $ O O X o X O X X O X X O O X + . O X % = = ; = ; ; ; ; = $ ; $ $ = = = ; ",
"9 . $ $ X @ * * = * * * * $ = = = = = = ; = $ = . % . $ X X o X O X o O O   X   o O . + O X % = = = = ; = ; = ; = = ; ; ; ; ; = ",
"9 . * @ X * * $ $ * $ * = X = * ; = = = = = $ $ % O X O X X X X O O o X X X O X . . + . $ $ = = = = ; = = ; = = ; = = = = ; = = ",
"a . X $ $ $ * * * X = * = * = $ = = = ; = = $ $ O . o X O O O O X X X X X O X X + o . + . $ = = = = = ; = ; = ; = ; = ; ; = = ; ",
"p   @ * $ X * * * * * * * = @ * = ; = = = = = $ O X O O X X X X X X X X O X     . % $ $ $ $ = = = = = = ; = ; = ; = ; = = ; ; = ",
"4 . @ * X * * * = * * @ * @ * = = = = = = = = $ . % . % X O X O X o O X X O O o % . $ $ . . = = = = = = = ; = = = ; = = ; = ; ; ",
"a . * * $ $ * = * * * = * $ * * = = = * X * * = . O O X X X X X O O . O . O O O O o # O X O X = = % = = = = = = = ; = = = = = ; ",
"6 . * X $ $ $ $ = $ = * * = * = % * @ = = = @ * % X O X O O O O O X O O O O O . o O   O X O X = $ = = = = ; * ; = = = = = 6 = = ",
"p . * $ X * * * $ % = @ * * * * $ * @ @ @ * * $ X X o X X X O O o X O o O o o o   O O   o o X - = ; = ; = = ; = = ; = ; = = 6 = ",
"9 . = * $ * $ * * * * @ * = * ; $ $ = * * = * % X o O X O . X o O X X O O O . O o #   o O o X = * = = = = ; = = ; ; = ; = = 6 = ",
", . * * * = * $ $ * * * = @ # * ; = * $ $ * $ * $ X O o O X O O O 9 4 o 7 9 9 :     o o O O o - = = = = - ; ; ; ; ; ; ; 6 ; ; ; ",
"9 X * = * $ * * X * * * * = = * $ * = * ; $ * * . % O X o O O X 7 % 6 O 7 7 9 4 O O # o o o X % = ; # = ; = ; # ; - = ; = ; ; ; ",
", . = * * * $ $ X * = * * * * = = * * = ; $ = = O O O . o X X o X O 9 o 9 % o 9 O o O O O o O = ; = ; ; - = : ; - ; ; ; : : : ; ",
"9 . = * * $ * $ = X % * @ ; * = = = = * $ = = % $ o O O O o O o X O 9 o 9 9 2 % o O o # o o o = ; ; = ; ; ; : : ; ; - : $ ; : ; ",
", X * * * * = @ = % = = * = * * = @ * = * * * * = O O O o O O # . % O + 4 + - - - + o + + O o O - = - ; ; : > - ; : : : = 9 4 4 ",
", X = = * = = X = % $ $ = * * # * = * * = ; @ ; O O O   O O O - o O O o + o o o o o + o o o + + ; ; ; ; - ; ; : : : - % % & & + ",
", . = * = * # # X X = = * = = = = * * # = = = # # O o o o o # o + . o o o o o O o o o o o - + o o + + + # + + + + + + + & & 2 z ",
", X = * * * = * = * * O @ = * * * ; = * * = # = = O         o O o o + o O - 4 + 4 + + + o + + + + + O O 9 f j d d k s d l k k k ",
"6 . = = = * X * * * $ $ $ % $ O = % = = = X o X O o O - o + o # O o O % O O + O & a a d d d s 9 9 j k j v j k k k j d ; % - % = ",
"6 $ $ = @ = * = * % = * $ % X X   X X o o O O O O O + X O O - a d f d w w 7 a s d d s ; X O # @ X * $ O # = O # # = # - = = + = ",
"6 . . O X X X X X o O O $ o O O   X   4 s a a a 9 9 , 6 q s s s & . X X X X X X O X @ @ O X @ X X * # # # # # # # # # # + # = - ",
"6 o X O X X X X % 9 9 9 s q 9 9 , 9 a a s s a a X $ X X X X X X $ X $ X X O = X # @ O # # # # # = # # = + # = - # # = # - = - = ",
"6 : 9 9 , , p 9 a 9 a 9 a a a a , X X X X $ X X X X @ X X X @ X X X # @ # # # # # # # # # # = # = = - # = # + ; # = - - ; - - - ",
": 6 6 9 6 > O . X X @ X X   X   X X X X X X X X X X . X X X X @ # @ # # # # = # # # = ; ; = - = = - = - - : - : : - : - - - > ; ",
"6 . X X X . . @ X   = ; 4 , ; X X X X $ X X X X X @ @ @ X # O # = = # # = = = = ; - ; # ; : - ; - : - : : : : : : : : : : , : : ",
": X X $ X     X . . @ @ @ X X X X X X X X X X @ @   @ . X # X = = = = ; = ; ; ; - ; : : : , , , , , 4 , 4 4 4 4 4 4 4 , 4 4 4 4 ",
"= X X & $ . X X   X X X X X X X X X X X X X O @ X X @ O X = O = = : ; - : : : , > > , 4 9 9 9 4 a a a , 4 a a a 0 4 9 9 a a 9 a ",
"O X X ; $ . . X X   X O X @ X X @ X X O # * X X X @ X # # # O + - ; : , : p 4 4 4 a a a s k j j k j k d s j d d d d d d d d d d ",
"% O % : X . . X X   X @ X X X X X O @ O X X O # @ X # O % # # # - , 4 p a s s s s k k k b M H G M M m m b m m b b b v m m n n v ",
". . . , X # $ X X X X X @ @ @ X @ X X X X = # X # O # O # O = = : 9 a s h k m m H J U I _ ` ` ' ' ' } _ ` ` ` ( Y ( U U M w d a ",
". X X @ X X X X X . @ @ X X X X X O = X O @ O # # O # + + - = # , k b G H J _ _ ' o.o.%.#.$.2.2.&.&.2.&.l h w b } } } ` ` P U K ",
"X X X X @ X X X @ @   @ @ X @ X X O O O % O O * # + = = # # # - # v U ` ' } $.:.&.7.%.h w w +.p.p.h.z.W.u.t.0.7.:.+.:.q.:.#.U K ",
"% . @ X .   X X .   @   X X X X X # X O O O # X O = # # # = = - - k d d q b 2.q.p.z.b.U.V.Q.V.L.V.F.{.!.V.2.` J K n n A M M K V ",
"X X   @ . @ X X @ . . @ X @ X X X O O X O = O # + # # = - = - , 2 >.F.Q.{.b.b.B.W.:X-XE.a.%.E J F n H G H G n c <.T.T.oX*X=X>X@X",
"% X X $ X X . X X X X X X @ O O % O X O X + # # < 5 S ) - : n j , U a.$.J J D D v b b b b x z X.H.T.%X&X>X<X@XI./.,X<X<X=X<X<X>X",
"% $ X X X X X X X X X X X X * O X O # % # # # # = = - = - : s : , q j j l z y =.M.T.[.+X*X$XOXG._.,X,X1X<X*X<X<X=X<X<X<X<X=X<X<X",
": % $ X X X X X X X O O X # = O # O O O O # o + = + # - & 1 N S  .A.XX@X;X.XD.Q.*X>X*X=X>X:X>X>X<X1X1X1X<X<X>X=X<X<X<X1X<X2X<X1X",
"6 : $ $ X X X O $ X O X X # - O X O + + O & 5 Z T ^  . .^ ^ Z / w.+X#X*X*X*X:X>X>X<X1X1X>X<X<X>X>X1X<X1X<X<X<X<X<X1X2X<X<X<X<X<X"
};
