/* XPM */
static char *caf0a060368b4fca9574e6b7025ad1b42JY1NJQKir2DxljZ[] = {
/* columns rows colors chars-per-pixel */
"64 64 222 2 ",
"   c #0C0D0F",
".  c #0E100F",
"X  c #0E0E12",
"o  c #110E14",
"O  c #150E19",
"+  c #0F1015",
"@  c #0F131B",
"#  c #121116",
"$  c #191015",
"%  c #15141B",
"&  c #1A161D",
"*  c #16181D",
"=  c #1A191E",
"-  c #21161E",
";  c #24191F",
":  c #161521",
">  c #191723",
",  c #1C1A24",
"<  c #191629",
"1  c #1E1C2A",
"2  c #1C1E32",
"3  c #221621",
"4  c #2A1724",
"5  c #231B24",
"6  c #291B25",
"7  c #211E2B",
"8  c #2B1E2A",
"9  c #221F32",
"0  c #1F202C",
"q  c #232328",
"w  c #23212D",
"e  c #2A252D",
"r  c #252333",
"t  c #2A2534",
"y  c #2B2A34",
"u  c #262439",
"i  c #2A263A",
"p  c #2D2A3D",
"a  c #322535",
"s  c #322C36",
"d  c #322738",
"f  c #322C3D",
"g  c #3A2C3D",
"h  c #35323C",
"j  c #37343C",
"k  c #2E2B42",
"l  c #322E43",
"z  c #382F44",
"x  c #332F49",
"c  c #2F3044",
"v  c #353144",
"b  c #3B3344",
"n  c #3C3943",
"m  c #35324B",
"M  c #3A354C",
"N  c #37384D",
"B  c #3C394D",
"V  c #373451",
"C  c #3A3652",
"Z  c #3D3A54",
"A  c #3E3C5B",
"S  c #402D40",
"D  c #423547",
"F  c #413B44",
"G  c #42364A",
"H  c #423B4B",
"J  c #463B55",
"K  c #413D55",
"L  c #413E5C",
"P  c #433F60",
"I  c #3E4454",
"U  c #46424B",
"Y  c #45424C",
"T  c #464256",
"R  c #4D4857",
"E  c #45415D",
"W  c #49445D",
"Q  c #5A4F5D",
"!  c #454260",
"~  c #4A4562",
"^  c #4D4965",
"/  c #4D4769",
"(  c #4E4A69",
")  c #524D65",
"_  c #514C6C",
"`  c #4D5B69",
"'  c #595367",
"]  c #56526D",
"[  c #525C6C",
"{  c #5D5B6C",
"}  c #544E70",
"|  c #565272",
" . c #5A5573",
".. c #5D5974",
"X. c #5E5778",
"o. c #5D5B7A",
"O. c #635C6B",
"+. c #625D75",
"@. c #625D7B",
"#. c #4F616F",
"$. c #52616F",
"%. c #5C6475",
"&. c #5E6779",
"*. c #68616D",
"=. c #646375",
"-. c #6A6473",
";. c #65617D",
":. c #6A647D",
">. c #64687A",
",. c #6D6A7D",
"<. c #726B7E",
"1. c #78727F",
"2. c #5F5E80",
"3. c #655F81",
"4. c #666181",
"5. c #6A6582",
"6. c #6D6983",
"7. c #68668B",
"8. c #6E6A8A",
"9. c #736D85",
"0. c #736E8A",
"q. c #6E7286",
"w. c #757184",
"e. c #7A7785",
"r. c #76728B",
"t. c #7A748D",
"y. c #74798E",
"u. c #7C798C",
"i. c #726E91",
"p. c #747295",
"a. c #7B7591",
"s. c #767B92",
"d. c #7D7A93",
"f. c #767599",
"g. c #7A779B",
"h. c #7B7A9C",
"j. c #6C78A0",
"k. c #7A7BA2",
"l. c #817B8D",
"z. c #847996",
"x. c #827C95",
"c. c #847E9A",
"v. c #817EA0",
"b. c #7F809F",
"n. c #848096",
"m. c #8A8395",
"M. c #86819A",
"N. c #8A859C",
"B. c #8E8A9C",
"V. c #928A9E",
"C. c #8F9190",
"Z. c #A6A89C",
"A. c #8282A4",
"S. c #8B87A0",
"D. c #8E8AA2",
"F. c #8787AC",
"G. c #8B8BAC",
"H. c #938CA3",
"J. c #928EAB",
"K. c #998FA8",
"L. c #9491A5",
"P. c #9B93A6",
"I. c #9693AC",
"U. c #9B94AB",
"Y. c #9E99AC",
"T. c #8E8DB2",
"R. c #9494B4",
"E. c #9997B5",
"W. c #9D9AB5",
"Q. c #9C9ABA",
"!. c #A298A8",
"~. c #A29BAE",
"^. c #A49DB2",
"/. c #A29EBB",
"(. c #A8A2AE",
"). c #A6A1B4",
"_. c #AAA3B5",
"`. c #ADA8B5",
"'. c #A6A2B9",
"]. c #ABA5BA",
"[. c #AEA9BB",
"{. c #B4AAB9",
"}. c #B2ACBD",
"|. c #B6B0BF",
" X c #B8B2BC",
".X c #9F9EC0",
"XX c #A39FC2",
"oX c #AAA7C5",
"OX c #B4AFC1",
"+X c #B6AEC3",
"@X c #B6B1C2",
"#X c #BAB4C3",
"$X c #BEB9C6",
"%X c #BEBACA",
"&X c #C0BAC5",
"*X c #C2BDCA",
"=X c #C5BED0",
"-X c #C4C1CE",
";X c #C9C4CE",
":X c #C9C4D1",
">X c #CCC9D5",
",X c #D1CBD5",
"<X c #D1CDD8",
"1X c #D6D2DC",
"2X c #D8D5DB",
"3X c #DAD6DC",
"4X c #D8D4E1",
"5X c #DDDBE3",
"6X c #E2DEE3",
"7X c #E4E2E8",
"8X c #E9E6EB",
"9X c #EBEAEC",
"0X c #F6F6EF",
"qX c #F7F9EE",
"wX c #F9F9EF",
"eX c #EDEBF1",
"rX c #F2EEF3",
"tX c #F5F5F1",
"yX c #F8F7F3",
"uX c #F7F8F1",
"iX c #F9F9F1",
"pX c #F4F3F8",
/* pixels */
"% # y b.C.b.q.s.s.h.h.h.g.g.g.h.h.c.f.g.f.f.p.f.p.8.8.7.4.2.| B E L C M m l k k l p p i k i i i i i u i i u 9 9 r 1 r 2 u u u u ",
"# & s l.C.n.b.b.b.f.k.b.k.v.h.v.A.v.h.h.h.h.f.g.f.i.i.p.i. .;.^ W Z C l l l k p p i i i i i p i i i i u r i k i : u u u 9 u u 9 ",
"* * j C.Z.e.E.R.R.T.T.G.F.F.G.G.F.F.G.F.G.G.F.F.A.k.p.7.7.o.B ( W K B M m l l f f f f f l l l f p f l p l l l l 1 k k p p k k i ",
"= * j C.(.,.E.E.R.E.E.E.E.Q.R.E.R.R.G.G.G.G.G.F.k.f.p.7.o.] < J L Z Z B B B b v b m v l l v v l v v v l x l l 1 l v k v c k k k ",
"= , f 1.C.O.R./..X.X.X.XQ.E.E.R.R.R.R.R.T.G.F.A.g.i.3. ._ E 9 K G K H B Z H Z B B G C B B B B H B B M m l l l i M B M M m m v m ",
"e , w j n h J.o.y.q.s.d.h.b.b.y.s.d.s.t.s.s.t.r.s.e.q.,.T f j E { %.%.>.>.%.>.>.>.>.>.&.%.%.&.&.%.%.` { J l 1 l I ` ` [ $.$.#.#.",
"; * = & ; 5 ] | j M D D H H n n D D G H H G D D b f f g l 5 p v f f f g b D D b z S S z g g g a d t a l l r k f 8 d a i f d f d ",
"= * * * * = f W W W ~ W ~ W ~ ! ~ W L J J G G M l l l l t i l f f z z z z l b v M z z M M z M M z l v l 9 i l l k l b x z z b v ",
"= * * = = = f f f v z l l g l b v f v f l f l b v v v f f p p l l l f p l l z z l z l z m M l l M v l i k c c c v v v m v v v x ",
", * # = , 5 B Z B M M K C K B Z Z Z Z B C Z Z C M M m m p m M v m M B B M V V M M C C C C C M C m m M 2 N V x c m V V V V V V V ",
"7 * $ * * = B J L Z E ~ W E E ! T L L L K L J E K Z Z A r Z Z Z K L A A A L K Z Z J L Z A L A A C L A m V V N I Z Z A V V V V V ",
"e & * # * = B T ~ ~ ~ ~ ~ ~ ( / ( ! W ! W ! ~ E L L E M r v E ! E ! ! E / ! ~ ~ P P L P P I P P L E I A A I P A P A P A P P P A ",
"f = % * % * B E W ~ W ~ W ~ ~ ~ ~ ~ E W T ! W E E T E C < M E L E E ! ! ~ ~ ! ! P P E E E A P A L L B V P P A P ! ! P P P A P A ",
"b = * # % * h J ~ E W ! W ~ W ~ W ~ W W E E E E E L E M > M L T L L L ! P ! ! ! P L A ! I ! P P E L 9 V A P ! A P P P P ! P P P ",
"H * * * = = p T E E W E W ! W W E ! E E E E E ! L L E m < C L L L L L L L ! ! ! P L L P P P E P I V < V A P A P P A A P P A A A ",
"T = = = = = v I E E E E E E W ~ ! E T E T E L E J L K m t C K K J T L L L ! E E P L ! L P P I A P m k C P P A A P P P P A P P A ",
"T , > > 1 q i K T E E E E E W E ! ! E L E K T L K L L x l K K A K A P L P P P I E E ! P A L P A A c Z A L A A A P P P P P P A A ",
"T q 1 5 1 q i K ! W W W W E W E W W E L K K K L L K L m v K L A K L K L L P ! ! I A A A L P L P P N Z A A A A E P P A P A P P P ",
"W t t t i i i T ~ ! ! ~ E E ~ E E E L T L A K L A K A J B K K K L K P L L P A L P P A P A A L L I Z Z I A A L A P P P A A A A A ",
") l B L K m k ! ~ W ~ ! ! E E E E ! Z E K T K K A L L Z Z C A K L P L L L L L A A A A A P I A L P u Z A A P L A I P P P A P A A ",
"! E rXuXtX{ V ~ ( ~ / ! E E L T T L C Z Z K L L L K C k k C L A L L L Z Z Z K Z A A A A A A Z L m < Z A A A L L A A Z Z A A A A ",
"( / 7XqXiX9.L ( ( ~ ! ~ E L T i < 1 1 A A Z K Z A A A l k C A K A A A Z Z : : % m Z Z Z A L A C c 2 C A A A A A A Z : : : < V V ",
"] / 1XiXuXe.L ] / ~ W E E L Z B C C 1 C Z Z C Z A A Z M C J Z A C J V Z M < C C b C Z C Z K Z A V k A A Z C A A N V r v m : N N ",
"| / <XuX0Xd.E _ ~ L L K Z Z B m m m w M m C V m C m C l V M V m V V x x p t k k b m m m V C x m m C m m V x x m x x p i k > c c ",
"/ ^ ;XuXwXt.P ^ E K Z Z C m x l p k w v v k x m x v V 2 x l l x l l k k i g t i g p l l l k x x u x c k v k l k k k f t 7 6 k k ",
"Z ( :XuXwXt.L K M x l p p y y r r w 1 u u r u r r u r < i r r r r 9 r 2 1 b , , t r r 9 r 9 r u 2 u u r r r r 1 7 1 6 , < 4 1 9 ",
"N / <XuXiXt.L m k r r 1 1 , , , > , , > > > > : : : % % @ @ % @ O @ @ O % a % O 3 # o o @ o X X X X X X X +   X X X o o o $ X X ",
"C ( u.uXiX@.L M k i r w 7 1 1 1 1 , > > > > : > : : u k : % : % O : % % % e > : 3 % # % % % # # # # # # % # % % # + # 5 % 5 # # ",
"N ( 4X0X0Xr.E C p u r w w 0 1 1 1 > , > > , > > > > u B > > : : : : % > & 8 : : 8 > > > : % % % % % % # % @ : : % # O ; > 5 % # ",
"Z ] 4XiXuXt.E Z f i r r 0 q , 7 1 1 1 > > > : * = * K v > * 1 > : : > > > 8 7 7 a t p t 1 5 7 1 7 u r , [ j.j.j.m * = ; , 3 R & ",
"T _ 5XuXqXu.! B c i i 0 q 0 1 1 , 1 > , > , * * % > E v > > > 0 > 0 r 1 1 8 : < e 7 T y w , e 1 0 q q , Z o.o.o..., * s * $ # * ",
"E | 5XuX0Xt./ Z v i r q 0 1 r y 1 , , = > > > y % > T v > > > * % % % % % 5 % > e % 1 % % % % # @ * # # 1 2 2 0 1 # # - % & & = ",
"L | 7XuXuXt.( N v p y w w 7 w r 1 , , 1 > > : > % > 1 v > 1 , > > , > = > 5 % > 8 & = & * = % = = * % * % % > % : % $ 5 % O $ & ",
"Z ..7XqXuXs.^ N l i y w w 7 y y 5 1 < > > > > r : : > w : % # % % # + + + ; # % 8 O O # o # # X + X +     X .         ; &   o   ",
"T | 7XuXuXt.~ B k y r w 1 1 1 1 , 1 > > % > : : : : > 1 : # # % % % @ O # ; # * 8 # # # # # # # + +   o . . . .     X 5 %   o o ",
"Z | 8XuXqXr.~ C k i r u y u u w 7 1 1 > : : : * : 1 > > < % : # > y v b n 5 s , 7 O % # X X % % , # X # + # + # o o o 5 & # $ X ",
"B | 9XiXqX8.T C l k r r y r r w 1 , 1 1 , > 1 q r 0 h , w w w w , 0 h h v 7 s = 6 e , n j j s s = , e j j s s e j j q 4 * & ; q ",
"Z | 9XiX0X5.! B v p p r y r w w 1 1 5 1 1 1 9 i y i y , w y y y , , i r e 3 = = e F s Y Y q Y e e q s U j Y j F H F j 6 & % 6 e ",
"Z _ 7XiX0X6.E M v k y r r r w w , 7 1 1 0 0 r y y i 0 > > y y y r q 0 0 q 5 = = q j j j j q n s , = q s s j n I H F j 6 % & 5 5 ",
"B ( 9XuXtX5.Z B k p i y r w w w 1 , < 1 1 0 w 0 0 0 > % > w 7 7 q , q , , = , , q q q y q * q , # = , q q = j s F F j 6 & % ; * ",
"N ( 9XqXtX@.Z v k i u w w 7 1 7 1 , , 7 , 1 , 1 , , > > , > , , , > * > & - % * q * * * % = > % # = * % * % j j e y 7 6 q # 5 # ",
"B ^ `.iXtX@.A v p u r w w 1 1 1 1 1 1 7 , 1 1 1 1 < 1 < > , , , , , , , 5 8 5 1 6 , = 5 5 5 1 & = = q 5 = , = = = = = 5 % = ; % ",
"@._ eX0XtXX.A ( ~ E Z B m m c p i l 7 ) +.,.1.w.e.9.6.' w.t.t.m.V.L.P.m.-.F *.+.6 (.(.(.`.`._.{.~.$X{.`.}.`.!.w.*.Q H 8 i H 5 :.",
"r./ rXtXtX3.K 6.;. .} _ / ! E T T T l @.t.d.M.M.M.M.n.N.M.D.H.^.(._.`.}.].-.!.!.9 |. X|.}.@X_.#X Xd @X$X#X$X#X#X|.}. X6 V.m.4 P.",
"i.| pXtXtX3.! 5.3.o.| _ / ( ^ W W ( p 8.t.M.x.d.c.a.z.t.9.c.D.U.Y.Y._.`._.O.).(.8 +X}.#X|.{. X#X|.d `.|.#X#X`._.}.{.[.5 !.P.= Y.",
"6. .yXyXtX5.E o.5.;.o.| | ( ( T r y 1 t.d.N.N.N.c.a.z.+.+.r.J.~.~.(.]._.`.b U R 3 @X@X#X#X#X+X$XP.{ m.`.#X@X@X}.}.}.).5 U U F ^.",
"@.X.yXiXiX4.) 5.8.>.;. .| _ _ C 1 r q e.b.N.N.N.c.c.c.' Q u.U.~.~.^._._.{.s D b b #X X#X#X#X#X#X}.-.e.{.@X#X@X|.@X{._.y a 5 R ).",
"+.} iXiXiXX.) 5.8.5.;.@.| | | | +.w.y.b.n.N.N.N.N.c.c.+.B t.U.~.)._.].{.[.}.*X&X@X}.#X#X#X&X#X#X}.<.H _.#X@X@X@X}.@X[.}.}.+X[.).",
"_ J <.l.w.E ^ 6.6.5.;.o. .....o.;.6.0.d.m.S.N.N.M.c.M.h.l K.P.^.^.^.^.{.{.|.^._.}.$X$X$X$X$X$X#X X}.R #X#X@X@XOX[.}.OX[.).W.).'.",
"^ f b B b l ' 6.5.6.;.;.o.+.;.:.9.t.u.M.N.S.N.N.M.c.M.M.t D.U.^.^._._._.}.}.&X#X*X-X-X&X-X-X&X$X@X@Xd }.}.@XOXOXOXOX[.[.[.[.].].",
"J t w t u e ) :.5.6.:.;.+.=.;.9.w.x.M.N.N.S.N.A.A.c.c.x.t H.I.^.^.^.].].{.}.&X&X*X-X-X;X;X;X*X$X#X#X9.{.}.@X}.[.[.[.[.[.`.[.[.[.",
"v w 7 1 q q ) ;.5.8.5.;.:.:.8.9.t.s.d.n.M.M.M.c.c.c.M.x.l S.K.Y.^._.^._.].}.&X*X;X,X1X1X1X>X;X-X&X@X_.~.[.@X}.[.[.[.[.[.'.'.'.'.",
"y q 1 v , q ) ;.5.5.6.6.:.6.r.e.u.x.b.M.M.c.M.c.c.z.c.c.W n.P.Y.~._.^._._.}.*X=X,X3X6X6X3X2X,X*X$X+X}.P._.}.}.+X[.[.'.`.'.).'.[.",
"7 1 H H , 5 ) ..;.5.5.6.8.w.r.a.u.d.x.n.M.A.c.c.z.x.x.z.-.c.P.!.~._._._.].{.&X:X2X6X9X8X8X7X2X;X*X+X[.-.~.}.].{.[.`.'.).'.].'.oX",
", & 7 l = = ) u ] 5.8.w.9.9.t.x.n.x.M.d.M.z.z.a.d.d.:.l 9.9.9 H.^.^._._.].}.&X,X3X8X0X9X9X6X3X>X%XL.<.f V.b ^._.[.'.W.).).'.[.oX",
"5 , & > = > R p ] &.8.t.t.d.d.x.n.M.x.d.x.d.h.z.d.r.:.r e.w.G l.!.^.].^._.}.&X,X6XrXrXrX9X7X2X>X%X).R +.m.) ^./.[.'.).).'.oXoXOX",
", > q q * 5 ~ 9 ] >.0.r.a.d.z.9.z.l.t.:.a.z.d.a.r.z.@.9 :.9.O.e.K.^.^./._.^.!.*X#X-X$XeX9X7X2X;X$Xm.' V.l.H.D.~.).).'.W.].D.'.oX",
"= = > , % = W 7 | 5.0.r.d.x.M.N.e.z.6.t.z.a.a.a.t.z.9.9 +.<.' t.K.~.U.^.^._.&X*X X$X X&X9X3X,X=X}.V.<.z.m.l.m.^.W.W.^.W.'.Q.oXG.",
"& & w q % & T 1 X.@.r.a.d.z.t.N.a.c.9.t.t.t.a.a.z.a.6.4 +.-.H B.c.!.H.!.^.K.!.=X!.4X!.m.5X>X-X*X^.N.R u.:.,.B.B.).U./.'.W.S.J.oX",
"& & = ; & & E 1  ...@.@.5.:.5.S.t.z.0.9.+.@.o.@.@.O.6.a 9.+.J z.V.l.t.l.z.l.z.].`.*X@X1.B.B.M.M.l.P.' t.7 e.M I.t.y.t.t.r.d.Q.oX",
"& * & = % & +. .| :.t.i.z.z.a.n.a.z.r.6.t.0.0.a.t.a.t.X.z.) ' <.c.K.K.!.K.^. .V.#XH.*Xl.*X@X}.`.^.U.w.+.T L.=.N.H.Y.W.E.Q./.oXG.",
"- # q = % , +.@...5.8.0.a.d.d.N.r.0.0.:.a.0.t.0.0.z.t.z.c.z z.M.z.K.c.!.~.^.-.K.{.H.].^.$X+X[.^.~.P.H.U.H.H.U.c.L.I.I.W.W./.E.oX",
"= # # % % $ ;.@...5.9.0.0.a.a.r.8.8.9.5.i.0.i.t.r.a.a.a.M.5 z.c.V.K.H.c.K.K.z.z.p.g.a.a.OX^.W.Y.U.P.c.P.H.B.H.M.J.R.U.E.R.Q.h.F.",
"= $ # # % & @.;.o.6.9.0.0.a.r.0.a.z.a.0.0.0.0.0.0.t.r.t.c.> m.z.z.V.H.c.H.K.K.K.U.U.~.U.P.W.U.U.L.L.H.H.L...L.D.G.I.R.Q.Q..XoXoX"
};
