/* XPM */
static char *_e24f010862d4f99da6e93e4efdaa174y664fqQOH4Cr3XUo[] = {
/* columns rows colors chars-per-pixel */
"64 64 202 2 ",
"   c #070503",
".  c #0A0604",
"X  c #0D0907",
"o  c #0B0708",
"O  c #0E0B0B",
"+  c #100908",
"@  c #120D0D",
"#  c #1A0D0D",
"$  c #14100F",
"%  c #1B110F",
"&  c #050215",
"*  c #140F10",
"=  c #190F11",
"-  c #151112",
";  c #1A1414",
":  c #1E1916",
">  c #1D1619",
",  c #1E1819",
"<  c #220509",
"1  c #210E0D",
"2  c #21140E",
"3  c #29170B",
"4  c #250E11",
"5  c #221515",
"6  c #2B1415",
"7  c #211917",
"8  c #221719",
"9  c #2A171A",
"0  c #241A1A",
"q  c #2B1C1D",
"w  c #371619",
"e  c #311D1E",
"r  c #2E201F",
"t  c #3A2317",
"y  c #261C21",
"u  c #2C1E21",
"i  c #331E21",
"p  c #3B1E21",
"a  c #262022",
"s  c #2D2122",
"d  c #342223",
"f  c #3A2426",
"g  c #362629",
"h  c #3D2529",
"j  c #36282C",
"k  c #3D292C",
"l  c #3F2D31",
"z  c #42191B",
"x  c #513111",
"c  c #431E26",
"v  c #501F22",
"b  c #422424",
"n  c #492726",
"m  c #41272B",
"M  c #44292D",
"N  c #4A2A2E",
"B  c #582327",
"V  c #53292B",
"C  c #592829",
"Z  c #50312F",
"A  c #452C31",
"S  c #4C2D32",
"D  c #522E33",
"F  c #5B2C33",
"G  c #463032",
"H  c #4D3134",
"J  c #543135",
"K  c #593236",
"L  c #543439",
"P  c #5D343A",
"I  c #652A2F",
"U  c #6A2E31",
"Y  c #673236",
"T  c #63363C",
"R  c #6C333B",
"E  c #64393E",
"W  c #6B393E",
"Q  c #78363A",
"!  c #66413F",
"~  c #5C3A40",
"^  c #673741",
"/  c #663941",
"(  c #6C3B41",
")  c #733E44",
"_  c #7B3F44",
"`  c #6C4343",
"'  c #734245",
"]  c #794146",
"[  c #764349",
"{  c #7B4449",
"}  c #73494A",
"|  c #7F494C",
" . c #7A5453",
".. c #824545",
"X. c #81454B",
"o. c #8E474D",
"O. c #83494D",
"+. c #8C4C4E",
"@. c #854C51",
"#. c #8B4E53",
"$. c #984E52",
"%. c #8D5154",
"&. c #8D5659",
"*. c #945254",
"=. c #985456",
"-. c #95555A",
";. c #9A555A",
":. c #9B5A5D",
">. c #A55455",
",. c #A45659",
"<. c #AC5B5D",
"1. c #B65E5D",
"2. c #97605F",
"3. c #B8605C",
"4. c #8F5A60",
"5. c #9A5B60",
"6. c #A25D62",
"7. c #AD5B64",
"8. c #B55F61",
"9. c #996867",
"0. c #A56266",
"q. c #AA6364",
"w. c #A5656A",
"e. c #AB666A",
"r. c #AE686C",
"t. c #B46466",
"y. c #B36B6C",
"u. c #B9686B",
"i. c #AA6F73",
"p. c #B46E71",
"a. c #BF6F70",
"s. c #A67473",
"d. c #AD7C7A",
"f. c #B67173",
"g. c #BA7375",
"h. c #BC7679",
"j. c #B77A79",
"k. c #BE797A",
"l. c #C46D6B",
"z. c #C87977",
"x. c #CD7875",
"c. c #CD757A",
"v. c #C27C7D",
"b. c #D4847D",
"n. c #C47D80",
"m. c #75A6A8",
"M. c #BD8A86",
"N. c #8DB5B4",
"B. c #C48182",
"V. c #CA8585",
"C. c #CA888A",
"Z. c #D48583",
"A. c #DA8C87",
"S. c #D18D8C",
"D. c #CD908D",
"F. c #D4908F",
"G. c #D48F91",
"H. c #D59492",
"J. c #D99694",
"K. c #DB9A97",
"L. c #D19F98",
"P. c #DC9D9C",
"I. c #E2938C",
"U. c #E49996",
"Y. c #D7A39E",
"T. c #DDA19F",
"R. c #E3A19C",
"E. c #E8AA9F",
"W. c #D8A7A4",
"Q. c #E2A4A2",
"!. c #E5AAA6",
"~. c #E6ACAA",
"^. c #ECADAE",
"/. c #F4ADA8",
"(. c #E7B1AD",
"). c #EAB2AC",
"_. c #E8B8B3",
"`. c #ECB9B4",
"'. c #ECBEB9",
"]. c #FBBAB6",
"[. c #FCBDBD",
"{. c #EDC2BC",
"}. c #F2C4BE",
"|. c #B7D0CB",
" X c #B4FCC4",
".X c #EBC8C5",
"XX c #F4C5C0",
"oX c #FCC2C2",
"OX c #F4CCC5",
"+X c #F4CDC8",
"@X c #FAD5CE",
"#X c #F6D8D2",
"$X c #F9DBD5",
"%X c #FCDCD9",
"&X c #C5FED5",
"*X c #F7E2DB",
"=X c #FDE2DD",
"-X c #FAE7E1",
";X c #FAEBE4",
":X c #F9EFE9",
">X c #F7F2EC",
",X c #F9F1EB",
/* pixels */
"u f S ^ O.$.,.7.7.<.7.t.a.z.Z.J.R.).`.}.}.+X#X$X$X*X*X-X;X:X:X>X,X>X,X:X;X;X*X*X@X+X{._.W.L.C.d.9. .! M t d 0 0 8 8 8 > 8 > > > ",
"{ o.$.;.,.;.;.6.6.i.d.j.d.d.s.9.2.-.2.w.D.W.XXoX%X=X-X;X:X:X,X,X,X,X,X,X:X*X*X=X=X%X@X+X}.'.!.K.D.b.z.a.u.t.q.,.X.~ h i y u y u ",
"B F R ) ..o.;.7.u.c.c.A.I.R.E.).`.}.OX+X@X$X$X@X-X=X;X:X,X,X,X:X,X,X>X,X;X;X,X;X.X-X$X#X+XOX{.'.Y.b.2.! I B I C I U R R ^ A u u ",
"> 8 q 9 e i h f m S J L ! ! ` ' } } } ] ` ! ' ! | +.=.,.<.1.1.u.y.y.u.g.V.H.U.!.Z.^.[.[.XX[.]./.!.R.I.b.z.l.8.<.,.>.$.$.o.X.) ^ ",
"= ; 5 9 q d f n S F Y ) ] ..+.=.6.e.g.v.V.G.T.!.(.).`.'.h.W.q.b.I.A.{.{.XX'.`._.~.P.H.S.n.g.w.5.%.} W Z M f e 6 8 ; = = = = = * ",
"9 e d d f m M M M 6 D T W ] O.%.;.6.w.p.k.C.H.P.{.^.).`.H.W.*.U.b.Z.{.XXq.`.(.^.Q Q Q Q o.X.X.X...] ! T P V M h p i i u 9 9 8 8 ",
"i q d f h h m M V D K T ( ] ..%.;.6.e.p.h.n.S.K.R.(.~.^.L.L...x.x.x.`.`.j.~.Q.T.J.H.V.j.p.0.,.;.%.| ' W K Z #.h h p i i u 9 8 8 ",
"i i d f h m m N S D D T ( [ | +.%.5.6.e.g.h.B.S.J.!.W.!.^.D.Q l.l.l.~.(.~.!.H.H.D.V.v.g.r.0.5.-.+.| ' R K J E m h h p i 9 u 8 8 ",
"g g h h m 9 M M D J J T @.S J J D D N M n b v.n.C.P.M.R.Y.b.I 1.3.8.Q.Q.T.J.O.V.B.v.k.y.e.6.-.#.O._ ) W Y D D M M p f i e 9 q 0 ",
"@ # # # = e m S S J J T ^ p c N F ^ [ #.4.e.g.h.v.S.y.S.H.a.C >.>.>.F.H.G.C.h.k.k.h.p.g.y.e.6.6.5.-.&.T P D V N M i M h f r q 0 ",
"e i d f h m m M S H J K T W ) _ { #.;.6.t.v.7.p.p.n.q.v.b.0.v Q Y U v.V.n.n.f.g.p.y.&.i.9.4.@.} ( / K T P D V A N 5 5 5 $ - # # ",
"q r d f f h m A N N D J K T W ) _ | #.#.5.6.w.e.r.g.:.j.j.:.w C C V p.v.h.g.w.e.w.q.5.5.*.@.| { ) ( T P J S S N b h h i d e 0 9 ",
"d r d d d h h m M M S J P P T ^ ( { O.@.#.-.:.6.6.e.&.e.y.o.w B B n 6.r.p.r.&.6.6.;.-.#.#.X.[ ( E T P P J S M M m b f f e q q 0 ",
"q e e d d f h m M m S S D P P T ( ) ) | O.#.%.-.;.5.X.6.6._ w b t b 4.7.6.6._ ;.-.*.#.O.| ] ) ( P P K J H m M m h f d d r d q 0 ",
"q r e d d f f f b w N N S D J P T ( ) ) [ O.@.#.#.*.) -.;.W w 3 5 t @.5.5.-.Y #.#.#.O.{ ) ( ( / P K J S N N m k h f d e d i q 5 ",
"q e d r d i f f h 4 M S S J D P P T ^ ) ) [ { X.O.@.T #.#.Y 4 6 w e _ %.#.#.V { X.[ [ ) ( E T P K D S S N h h f f d d q r q q 0 ",
"q r d q r f d f f # b M M S S D F T P ^ ^ ( ) ) [ [ K @.| D 4 6 e 9 ( @.O.O.z [ ) ) ( ( E T P J J S N m m h j d d f d q s q q 0 ",
"q q q r d r d d d 6 h m M M S D J J P P / ~ / ( ` / V ] ) V 1 5 6 9 P ) ) ) w ` ( / / E P L J J S S A m k h h i d g u s q q q 7 ",
"$ % # $ * @ # # < i 5 8 5 ; 8 5 9 0 8 9 9 q q i P E N E ^ M 1 1 5 5 D / ^ ( w F J L L L L H G G G G M k i p j i u s s s a y 8 0 ",
"5 0 0 0 q q q # p M i J h m M A A S S J J L L ~ N K b T K p 1 5 2 5 S P P ~ w P d L L H G A G A A k k s p 9 S y s s u s q 0 0 , ",
"0 q q 9 q d r ; d G 9 L f m m m M A N H D D J L m J f K P f 1 % 5 2 m P K K p L w J S S S S M A k k h u i 4 j i d s s a q 0 0 : ",
"q 0 0 q q q 9 ; d M % J f f m m m m m A S S S J m N w J J w + # % ; f J J J i H i m S S A m m m h h h f i i i s s s a a q 0 0 : ",
"8 0 0 q q q q 0 d g 2 L d g f f k m m m N A A A f N e D N e # # % % d H S G f N f m m m m h k k g h d h i A u u r a r 0 r 0 7 : ",
"0 8 q q 0 q q q d g 6 L r f f f f f h h m m m A f m 9 M N e + @ % $ d N A m d m h h k h g h h h h d d h i A u y s r r r , 0 7 : ",
"0 0 0 0 0 0 q y q u d J r d d f f f f f h h m m d h q m m 6 @ # $ # r m m k r k k f h g f d d d d d i h q m 0 y r q r r , 0 : , ",
"> 0 7 0 9 0 0 0 8 q h S d r r f f f d g g f h P m h 6 h h q + 1 1 # q m f f r r P m d d d d d d d u u h 8 g > q r q 0 0 , , , , ",
"7 0 7 0 7 8 0 8 ; 0 g H r r q d r d d d h P N 5 d f 0 f f 0 + % @ + q f f f d f k i S M r d d d u q u m q d - q 0 y 0 r 0 0 s s ",
"f 5 0 7 0 7 0 9 = q u A q u s e r d N J d A q d d r 8 d t 5 # + @ # 5 t d f q f g d d q N S q s u s q f f q - 0 0 0 q 0 h d ; , ",
"8 d m u 0 7 8 8 @ 9 0 A q d u u M S e d 5 u $ @ ; r 5 r d 5 + @ + # 8 f d d q g ; @ = g i = h A e q u h g 0 # q 0 0 m i 8 y , * ",
"0 ; s 5 h f 9 y @ 0 q m 5 q k m 8 q q 8 - 0 d s 8 e 5 r d 5 @ @ @ + ; r r d q d q u s * @ u q d 5 m d d q 0 $ s A u s > , * y y ",
"# O q # 8 ; f M @ 0 0 m h i q q 0 @ * u u i s d 5 9 5 e r 5 X + + # 8 q i u 0 d u i q u u # @ y # y 0 f 9 0 y 9 8 u - * y y d s ",
": : $ @ @ ; 8 g 8 8 7 # q = 0 * # q u q u e q q ; q ; 9 q 5 + + + + ; q q 0 q q q q q u 9 q y ; @ * u 0 8 0 8 8 * * 8 , y u j l ",
"; : : , > O # a 5 7 7 0 , # ; 0 q q q q q q q u ; q % q r : + + + @ % r 0 0 0 0 r q 0 q q 0 q q 0 0 0 0 5 + 8 - 0 : : 0 q s j l ",
": ; : , : , 0 @ 5 @ 8 0 q 8 0 0 0 0 0 0 q q s q ; 0 ; 0 7 : + $ + + % 7 0 7 0 q 0 5 q q 0 0 q 0 0 0 q 0 ; 5 8 : : , 0 , , a s j ",
": ; ; ; , : : @ % % 5 0 0 0 7 0 8 0 0 q 0 q 0 ; # 7 % 0 q % $ X + @ $ r 0 ; 0 > ; q q 0 0 0 0 7 7 0 u 0 3 x 7 > , : 0 , , , y s ",
"; : : ; : ; ; @ $ x 3 5 0 0 7 7 0 0 0 0 0 0 q > = 0 % 0 7 : X X $ + $ 7 q ; : 0 $ 0 0 7 0 0 0 0 7 0 q 7 ; ; 8 > ; : ; , , , , , ",
"; ; ; ; ; : ; @ # X : ; 0 8 7 0 0 7 7 0 7 r : - ; 8 # 7 r $ + X X X $ 0 8 % 7 ; - , 0 0 0 0 0 0 0 7 q , * - > : ; , - > > > > ; ",
": ; > ; ; ; ; @ - * O > 0 7 8 7 ; 7 0 7 7 : : - ; 8 % 0 : : + O $ $ @ 0 7 ; , > # 8 , 7 , 0 ; : : ; 0 - ; > ; ; , , , , > ; ; ; ",
"; > ; ; ; : : O 8 > @ @ 8 ; : 7 : 7 , 0 r : 0 - - : - H j $ + + O $ - q 8 - , ; - : : : : : , ; : : 8 a , 0 > ; - , ; > > - ; ; ",
"- : ; > ; ; ; O 0 9 @ O 8 : : 7 : ; : : 7 7 0 - : : ; m.m.: O $ O $ - N.m.: , ; * : : : : : : ; ; ; 8 q , q ; > > ; , ; ; > - - ",
"> - ; ; - ; ; O ; 0 * @ ; 8 : ; : ; : : : , 7 - ; : ;  X X: O O O $ $ &X X; : ; - : : : : : : : ; % 0 ; - y ; ; - ; ; ; - - - - ",
"; > ; ; ; > - * > 0 ; O ; 8 ; : ; ; : : , , 7 $ - : ; m.m.; O @ @ $ : |.|., : - - : : ; ; ; : ; ; ; ; @ - y - ; - > , - ; , - : ",
"- , ; - - ; - @ ; q ; O ; 8 ; ; , ; : ; : : : - ; ; - a r % O O O $ $ 7 s ; , - - ; - : ; ; ; ; ; $ - 8 g y - ; ; ; - ; , - - - ",
"> - ; ; - > ; - ; g ; - ; 5 ; ; ; : : ; ; ; : # ; ; - : 7 $ O X X $ $ 7 : - ; - - ; : - : ; ; ; ; @ ; ; 8 ; - ; - > > - - , - - ",
"- > ; ; ; ; - ; ; ; r > > , > - ; : ; : : ; : @ = ; $ : ; - O X + $ $ : : $ ; - $ ; ; ; ; ; > > ; - ; ; ; - - - - , - , - - , - ",
"; ; - ; ; - - ; ; - - ; - 0 - > - - > > ; ; ; * * ; # , : @ O X X $ X : : ; ; - ; ; ; - - > - > ; ; ; 2 ; - - - , - - - , - - - ",
"> - - - - - - - - t ; t @ 8 ; ; > > ; ; ; - - , * ; * ; ; - O . X X $ ; ; ; ; $ ; ; - > > ; - ; ; ; ; - - > - , - - , - - - - - ",
"- - - - ; > > - @ ; $ # + 8 ; - ; - ; - ; > ; , * ; @ ; ; $ o o X X O ; ; $ ; $ - ; ; > - ; > ; u y > ; - - - a a - - , , - , - ",
"- - > - - ; - ; = * * 0 - u y ; - ; ; - - ; - > * - O > ; @ O   o O O - ; ; - - - ; ; ; ; 8 y y 8 = ; - - $ - ; $ , , ; > - ; - ",
"- - - - - > , ; ; - * * = - = u u , = ; ; ; ; = * ; O ; - - o . o o * ; - - - - ; = ; 0 u > y - # O > - - O O - - - ; - , a - - ",
"> - - , , * ; ; * * * * * * = > s > s u = ; ; ; * - * - ; @ o o   O O ; ; ; - - - 8 i * 8 y $ O - - ; - $ $ ; - * O - - - * > ; ",
"- > > - - - @ O * O * * ; - * O - y > ; > i y ; * * * ; - @ X   . o O ; - - - 8 d = = y * @ - - ; - - - - - ; - - - - $ * * * - ",
"- ; * - O * @ - $ * $ - > - - - - * @ - 0 ; @ 0 > ; @ - - * O . . o * - - - - ; ; = * * - - - - - - ; - - - - - - - - * * O * O ",
"* * * * - - - - - O * - > ; - ; - ; - - * O - - ; - @ - - * o . . O O - - - - - * * - - - - - - - - - * $ - - - * - - * * * * - ",
"* - - - - - - - - O - - , - - - - - - ; - - - @ * ; & - - O o ; . O * - - $ $ * - - - - - - - - - $ - - @ - $ - - - - - - * O * ",
"* - - - - - - $ * O - - ; ; - - - ; - - - - - - O * O - - - o . . @ O - - @ O @ - - - - - - - - - - - @ * - - @ - & - O - * * - ",
"* - - - $ # * * * O @ * > - - - - - - - - - - - @ * O - - * . . . o O - - * O * - - - - - - * - - - - O O - - - - O O * O - - - ",
"O - O * @ - * * * * @ - - - - - - - * - - - - - @ - O - * @ .     o O $ @ O O * * - - - - * - - O - - * O - O * - - - * - O * O ",
"- - - @ $ $ * * * O @ * - - - - - * * * - - - * @ * O - - O       O O $ - O O * - - O * * * * - - - - O - > , > , , , > , - - O ",
"- O * $ * @ * * @ O O - ; - * - * * * * - @ @ - O * O * @ O .     o O $ - O O > > > > > - - - O * O - * O - - - O O O * O - O O ",
"* * @ * * @ @ + * @ O @ - , > 8 , , , y , 0 , > - O O * - O       O O * @ O @ - * * O * - O * O * * O O * - O O O $ $ O O O O O ",
"- ; > ; ; * * * * O * * - * = ; - - * * * * @ - * - o @ O O       O O @ * o @ @ * O - - * * * * * O O $ O O O - - O O O O O O O ",
"@ @ O @ * * O * @ * * O * O * O @ - @ @ * @ @ @ - O O @ @ O .     & O @ @ O @ O * * * - * O @ @ O * @ * - O - O O O O O O O O O ",
"* @ O @ O O * O O * O O O * O * O @ @ O @ @ $ O O O O @ $ O   @   O O @ @ O @ @ O @ O O @ O O $ O O O O O O O O O O O O O O & O "
};
