/* XPM */
static char * weast_2_xpm[] = {
"64 64 3 1",
" 	c #2D3EFA",
".	c #A60AFD",
"+	c #47C4F1",
"                                                                ",
" .............................................................. ",
" .............................................................. ",
" .............................................................. ",
" .............................................................. ",
" .............................................................. ",
" .............................................................. ",
" .............................................................. ",
" ....+++..............................+++...................... ",
" ....+++..............................+++...................... ",
" ....+++..............................+++...................... ",
" ....+++..............................+++...................... ",
" ....+++..............................+++...................... ",
" ....+++..............................+++...................... ",
" ....+++..............................+++...................... ",
" ....+++..............................+++...................... ",
" ....+++..............................+++...................... ",
" ....+++..............................+++...................... ",
" ....+++..............................+++...................... ",
" ....+++..............................+++...................... ",
" ....+++..............................+++...................... ",
" ....+++..............................+++...................... ",
" ....+++..............................+++...................... ",
" ....+++..............................+++...................... ",
" ....+++..............................+++...................... ",
" ....+++..............................+++...................... ",
" ....+++..............................+++...................... ",
" ....+++..............................+++...................... ",
" ....+++..............................+++...................... ",
" ....+++..............................+++...................... ",
" ....+++..............................+++...................... ",
" ....+++..............................+++...................... ",
" ....+++..............................+++...................... ",
" ....+++..............................+++...................... ",
" ....+++..............................+++..........+++++++..... ",
" ....+++..............................+++........++++++++++.... ",
" ....+++..............................+++.......++++++++++++... ",
" ....+++..............................+++......++++++...++++... ",
" ....+++..............................+++......++++......+++... ",
" ....+++..............................+++.....+++++......+++... ",
" ....+++..............................+++....+++++.......+++... ",
" ....+++..............................+++....++++.......++++... ",
" ....++++.............................+++....+++......++++++... ",
" ....++++.............++++............+++...+++++++++++++++.... ",
" ....+++++...........+++++............+++...++++++++++++++..... ",
" .....++++...........++++++...........+++...+++++++++++++...... ",
" .....+++++.........+++++++..........++++...+++................ ",
" ......+++++.......+++++++++........+++++...+++................ ",
" .......++++......+++++.+++++......++++++...+++................ ",
" ........++++....+++++...++++++....++++.....+++................ ",
" ........+++++..+++++.....++++++..++++......++++............... ",
" .........++++.+++++.......+++++++++++......++++............... ",
" .........+++++++++.........+++++++++........+++++............. ",
" ..........+++++++............++++++.........++++++++.......... ",
" ...........+++++..............++++...........+++++++++++...... ",
" ...........++++................................+++++++++...... ",
" ..................................................++++++...... ",
" .............................................................. ",
" .............................................................. ",
" .............................................................. ",
" .............................................................. ",
" .............................................................. ",
" .............................................................. ",
"                                                                "};
